<svg width="46" height="46" viewBox="0 0 46 46" fill="none" xmlns="http://www.w3.org/2000/svg">
<path d="M20.2339 26.2428C23.1987 26.2428 25.939 25.4072 28.1312 23.9877C29.8292 22.9006 32.0394 23.0803 33.5308 24.4369C37.6726 28.1924 40.0265 33.5201 40.0175 39.1174V41.5162C40.0175 43.9959 38.005 45.9994 35.5253 45.9994H4.94249C2.4628 45.9994 0.450297 43.9959 0.450297 41.5162V39.1174C0.432329 33.5291 2.78624 28.1924 6.92803 24.4459C8.41944 23.0893 10.6386 22.9096 12.3276 23.9967C14.5288 25.4072 17.269 26.2428 20.2339 26.2428Z" fill="#5799FB"/>
<path d="M20.234 22.2448C26.3769 22.2448 31.3566 17.265 31.3566 11.1222C31.3566 4.9793 26.3769 -0.000488281 20.234 -0.000488281C14.0911 -0.000488281 9.11133 4.9793 9.11133 11.1222C9.11133 17.265 14.0911 22.2448 20.234 22.2448Z" fill="#5799FB"/>
<path d="M43.8537 17.465H40.4217V14.033C40.4217 13.0986 39.667 12.335 38.7236 12.335C37.7893 12.335 37.0256 13.0986 37.0256 14.033V17.465H33.5846C32.6502 17.465 31.8955 18.2287 31.8955 19.1631C31.8955 20.0975 32.6592 20.8611 33.5936 20.8611H37.0256V24.2932C37.0256 25.2275 37.7803 25.9912 38.7236 25.9912C39.658 25.9912 40.4217 25.2275 40.4217 24.2932V20.8611H43.8537C44.7881 20.8611 45.5518 20.0975 45.5518 19.1631C45.5518 18.2287 44.7881 17.465 43.8537 17.465Z" fill="#5799FB"/>
</svg>
