<svg width="106" height="102" viewBox="0 0 108 102" fill="none" xmlns="http://www.w3.org/2000/svg" >
                                <path fill-rule="evenodd" clip-rule="evenodd" d="M10.2362 0.826745C9.52248 0.983703 8.30768 1.42197 7.53664 1.80026C5.61207 2.74496 3.04936 5.34003 2.11885 7.28644C0.757232 10.1344 0.827836 7.59068 0.888472 51.6892L0.943501 91.7158L1.50314 93.2688C2.82468 96.9352 5.61643 99.7058 9.18171 100.889L10.7034 101.394H54.0001H97.2968L98.8185 100.889C102.384 99.7058 105.176 96.9352 106.497 93.2688L107.057 91.7158L107.112 51.6892C107.172 7.59068 107.243 10.1344 105.881 7.28644C104.953 5.34403 102.388 2.74475 100.471 1.80426C97.6864 0.437506 100.464 0.51367 53.8963 0.527978C19.0282 0.538708 11.3044 0.591518 10.2362 0.826745ZM73.1196 19.2182C75.561 19.9866 77.8264 21.7737 79.3466 24.1306C83.0635 29.893 80.886 37.815 74.7416 40.8841C67.2799 44.6113 58.6951 39.6032 58.0233 31.1308C57.5841 25.5927 61.6181 20.1806 67.1345 18.907C68.7968 18.5233 71.3298 18.655 73.1196 19.2182ZM39.4205 42.989C39.8441 43.2099 40.4683 43.6864 40.8074 44.0481C41.1465 44.4098 46.0057 50.775 51.6056 58.1929C60.9623 70.5873 61.8776 71.7317 62.901 72.3164C64.2335 73.0776 65.9064 73.1674 67.2126 72.548C67.6551 72.3382 69.5658 70.6329 71.4588 68.7587C75.094 65.1592 75.5 64.8937 77.3729 64.8911C78.6076 64.8893 80.143 65.7483 81.0295 66.9369C82.7392 69.229 93.7596 85.2663 94.211 86.119C95.0493 87.702 94.7225 89.149 93.381 89.7938C92.7269 90.1084 89.416 90.1378 54.7961 90.1378C18.3374 90.1378 16.8997 90.1233 16.203 89.7482C15.2401 89.2298 14.5439 88.1624 14.5501 87.2137C14.5528 86.7969 14.7679 85.9351 15.0283 85.2987C16.0633 82.7694 35.3765 44.3366 35.8967 43.7716C36.9813 42.5938 38.1598 42.3321 39.4205 42.989Z" fill="#0C8EC7" />
                            </svg>