<svg width="26" height="24" viewBox="0 0 26 24" fill="none" xmlns="http://www.w3.org/2000/svg">
<path fill-rule="evenodd" clip-rule="evenodd" d="M12.9906 0.0478855C11.7082 0.153952 10.5232 0.569951 9.42961 1.29796C8.76171 1.74262 7.77595 2.7341 7.38713 3.35229C7.13584 3.75185 7.09863 3.78954 6.98441 3.76073C6.76725 3.70589 5.81497 3.72847 5.49939 3.79593C4.61568 3.98483 3.73967 4.52628 3.17269 5.23405C2.49084 6.08522 2.20748 7.00025 2.27121 8.14497L2.30277 8.71137L2.06245 8.90585C1.50786 9.35477 0.963936 10.0403 0.61332 10.7323C-0.499288 12.9282 -0.0709982 15.649 1.6777 17.4933C2.34511 18.1972 3.03602 18.6652 3.84931 18.9643C4.63863 19.2546 4.83858 19.2708 7.62403 19.2708C10.4622 19.2708 10.3466 19.2849 10.5538 18.9134C10.7431 18.5739 10.6478 18.1813 10.3242 17.9674C10.1966 17.8831 9.97947 17.8736 7.59081 17.848C4.72044 17.8172 4.76564 17.8221 4.01885 17.4671C2.71928 16.8494 1.78518 15.602 1.49517 14.0968C1.46557 13.9434 1.44106 13.5766 1.4407 13.2817C1.43879 11.8585 2.12638 10.5765 3.35044 9.72111C3.84916 9.37253 3.94978 9.14315 3.8118 8.66886C3.78346 8.57142 3.7373 8.3288 3.70926 8.12971C3.53161 6.86938 4.37193 5.61434 5.64054 5.24536C6.00208 5.14021 6.65781 5.13934 7.03475 5.24358C7.63118 5.40849 7.95058 5.2974 8.1754 4.84686C8.90019 3.39419 10.2329 2.23491 11.741 1.74526C12.9283 1.3598 14.3099 1.36994 15.5208 1.77311C16.4348 2.07746 17.1586 2.53074 17.8605 3.23856C18.7202 4.10566 19.275 5.1572 19.4945 6.33585C19.6948 7.41088 19.711 7.43314 20.4368 7.62971C21.6465 7.95729 22.5436 8.5521 23.2473 9.4932C23.9642 10.452 24.305 11.4767 24.3063 12.6777C24.3076 14.0002 23.8348 15.2213 22.949 16.1829C22.217 16.9775 21.4839 17.4315 20.4794 17.712C20.1258 17.8108 19.9295 17.8207 17.7956 17.8473L15.4933 17.8759L15.3038 18.067C15.1287 18.2434 15.1143 18.2802 15.1143 18.5488C15.1143 18.8821 15.2178 19.0673 15.4743 19.1931C15.7073 19.3073 19.7465 19.3076 20.4059 19.1934C21.6799 18.9729 22.8398 18.3579 23.7994 17.394C25.2721 15.915 25.9907 13.7724 25.6879 11.7635C25.3083 9.2447 23.5743 7.1329 21.2744 6.3883L20.9406 6.28031L20.8806 5.96566C20.8476 5.79263 20.7428 5.41468 20.6476 5.12575C19.8375 2.66511 17.7319 0.768642 15.1722 0.194127C14.8137 0.113676 13.5916 -0.0238401 13.4782 0.00355157C13.4644 0.00689944 13.245 0.0268344 12.9906 0.0478855ZM12.6225 8.97885C12.471 9.03845 8.56916 12.9479 8.46616 13.1432C8.42644 13.2186 8.39392 13.3867 8.39392 13.5169C8.39392 13.7236 8.41834 13.7783 8.58607 13.9473C8.80485 14.1678 8.96734 14.2245 9.23747 14.1747C9.39961 14.1448 9.61708 13.948 10.7976 12.7627L12.1694 11.3855V17.4358C12.1694 24.0822 12.1493 23.6557 12.474 23.8887C12.5833 23.9671 12.7025 24 12.8775 24C13.1638 24 13.3377 23.9043 13.4804 23.6685C13.5762 23.5102 13.5786 23.3635 13.5787 17.4451L13.5789 11.3837L14.9255 12.7379C15.6661 13.4827 16.3359 14.116 16.4138 14.1452C16.4917 14.1744 16.6132 14.1983 16.6838 14.1983C16.8642 14.1983 17.1718 14.0123 17.2708 13.8433C17.3735 13.6681 17.3791 13.327 17.2822 13.1432C17.1707 12.9317 13.2703 9.03596 13.11 8.97591C12.9387 8.91179 12.7905 8.91265 12.6225 8.97885Z" fill="#0C8EC7"/>
</svg>