<svg width="50" height="50" viewBox="0 0 50 50" fill="none" xmlns="http://www.w3.org/2000/svg">
<path d="M31.8751 18.2342H41.6094L27.4062 4.03101V13.7498C27.4062 16.2186 29.4063 18.2342 31.8751 18.2342Z" fill="#5799FB"/>
<path d="M28.875 40.9531C28.875 38.4531 30.8125 36.4375 33.2656 36.2968C33.4219 33.8437 35.4375 31.8906 37.9219 31.8906C40.2344 31.8906 42.1406 33.5625 42.5157 35.7657V21.3594H31.8751C27.6875 21.3594 24.2812 17.9531 24.2812 13.75V3.125H13.75C9.54686 3.125 6.14062 6.53124 6.14062 10.7344V37.9218C6.14062 42.1249 9.54686 45.5313 13.75 45.5313H32.6718C30.5 45.1094 28.875 43.2344 28.875 40.9531Z" fill="#5799FB"/>
<path d="M42.2903 39.386H39.4888V36.583C39.4888 35.7194 38.7892 35.0205 37.9263 35.0205C37.0634 35.0205 36.3638 35.7194 36.3638 36.583V39.386H33.5615C32.6986 39.386 31.999 40.0849 31.999 40.9485C31.999 41.8122 32.6986 42.511 33.5615 42.511H36.3638V45.3126C36.3638 46.1762 37.0634 46.8751 37.9263 46.8751C38.7892 46.8751 39.4888 46.1762 39.4888 45.3126V42.511H42.2903C43.1532 42.511 43.8528 41.8122 43.8528 40.9485C43.8528 40.0849 43.1532 39.386 42.2903 39.386Z" fill="#5799FB"/>
</svg>
