<svg width="157" height="26" viewBox="0 0 157 26" fill="none" xmlns="http://www.w3.org/2000/svg">
<g clip-path="url(#clip0_987_9067)">
<g clip-path="url(#clip1_987_9067)">
<path d="M13.7036 3.87341C13.9314 5.76131 14.0616 7.09585 14.0616 8.821C13.7036 9.11395 12.8898 9.11395 12.4341 8.98375C11.8482 6.83546 10.9368 4.32911 8.17008 4.32911C6.47749 4.32911 5.40334 5.43581 5.40334 7.2586C5.40334 9.11395 7.71439 10.8065 9.01638 11.4575C10.2858 12.1085 12.1086 13.1176 13.3781 14.5172C14.322 15.5914 15.0707 16.7306 15.0707 18.4232C15.0707 20.4413 13.9965 21.9386 12.8573 22.9802C11.4902 24.1846 9.92778 24.7379 7.94224 24.7379C3.4178 24.7379 3.3527 24.0869 1.49735 24.0869C1.13931 22.8826 0.878906 21.1574 0.878906 18.7162C1.3997 18.586 1.95305 18.4232 2.5064 18.6185C3.1574 21.5806 5.40334 23.3708 7.58419 23.3708C9.56973 23.3708 10.9694 22.2967 10.9694 20.6692C10.9694 18.8464 9.50463 17.5444 8.00734 16.5028C6.60769 15.5588 3.90605 14.4196 2.40875 12.4015C1.6601 11.425 1.3346 9.89515 1.3346 8.6257C1.3346 7.0633 2.21345 5.53346 3.45035 4.55696C4.78489 3.48282 6.70534 2.99457 8.20264 2.99457C11.2298 2.99457 11.9133 3.61301 13.7036 3.87341ZM35.8344 24.7379C32.6771 24.7379 30.1382 24.1846 28.055 22.6873C25.4184 20.8319 24.1164 17.2189 24.1164 14.1592C24.1164 6.9982 29.4872 2.99457 35.8669 2.99457C39.8706 2.99457 41.3353 4.29656 42.9954 4.45931C43.2883 6.24956 43.5487 7.81195 43.7115 9.50455C43.3209 9.69985 42.7024 9.7975 42.3118 9.6673C41.4655 6.86801 40.0008 4.32911 35.5089 4.32911C31.6355 4.32911 29.0315 8.4955 29.0315 13.5407C29.0315 18.6185 32.0261 23.0453 35.8018 23.0453C38.0803 23.0453 40.7169 22.199 43.0279 19.6601C43.386 19.6601 43.9393 20.0507 44.1021 20.3437C41.8887 23.2406 38.9917 24.7379 35.8344 24.7379ZM59.7929 7.42135V15.6565C59.7929 17.7722 59.858 20.2135 61.4529 21.7433C62.4294 22.6873 63.764 23.3708 65.3264 23.3708C70.8273 23.3708 71.3156 19.0417 71.3156 15.3961V7.42135C71.3156 4.71971 70.7622 4.68716 68.321 4.45931C68.1257 4.26401 68.1257 3.54791 68.321 3.35262C69.7857 3.38517 71.4783 3.41772 72.4548 3.41772C73.3337 3.41772 74.6682 3.38517 75.9377 3.35262C76.133 3.54791 76.133 4.26401 75.9377 4.45931C74.0172 4.65461 73.4313 4.71971 73.4313 7.42135V14.8102C73.4313 20.6041 71.3156 24.7379 64.6428 24.7379C63.0804 24.7379 60.0859 24.7054 58.0678 23.3708C56.2124 22.199 55.2359 19.888 55.2359 16.7306V7.42135C55.2359 4.71971 54.6826 4.55696 52.7296 4.45931C52.5343 4.26401 52.5343 3.54791 52.7296 3.35262C54.3571 3.38517 55.9846 3.41772 57.4819 3.41772C59.0117 3.41772 61.1925 3.38517 62.7875 3.35262C62.9828 3.54791 62.9828 4.26401 62.7875 4.45931C60.2812 4.55696 59.7929 4.71971 59.7929 7.42135ZM90.6314 6.11936V12.1736H92.4542C94.7653 12.1736 96.23 11.0995 96.23 8.4955C96.23 5.30561 94.4072 4.71971 92.9099 4.71971C90.7942 4.71971 90.6314 5.17541 90.6314 6.11936ZM90.6314 13.5407V21.6782C90.6314 22.6222 90.8267 23.1104 92.7797 23.1104C97.0763 23.1104 97.7599 20.2786 97.7599 18.3256C97.7599 15.5263 96.2951 13.5407 92.9425 13.5407H90.6314ZM88.3855 3.41772C89.3945 3.41772 91.3801 3.35262 93.0076 3.35262C99.5501 3.35262 100.787 6.18446 100.787 8.4304C100.787 10.0904 99.4199 11.8807 97.6622 12.6619V12.727C101.112 13.6384 102.545 15.4937 102.545 18.3581C102.545 21.6782 100.396 24.4775 93.7237 24.4775C91.7707 24.4775 89.6875 24.4124 88.3855 24.4124C87.0835 24.4124 83.3728 24.4775 83.3728 24.4775C83.0473 24.2822 83.0473 23.5661 83.3728 23.3708C85.163 23.2732 86.0744 23.143 86.0744 20.4413V7.3888C86.0744 4.68716 85.163 4.55696 83.3728 4.45931C83.0473 4.26401 83.0473 3.54791 83.3728 3.35262C83.3728 3.35262 87.0835 3.41772 88.3855 3.41772ZM121.075 12.5317C123.256 12.5317 123.94 12.2387 124.037 10.4485C124.233 10.2532 125.242 10.2532 125.437 10.4485C125.404 11.425 125.372 12.1736 125.372 13.2478C125.372 14.387 125.404 14.9729 125.437 16.1122C125.242 16.3075 124.233 16.3075 124.037 16.1122C123.94 14.6474 123.321 14.029 121.075 14.029H118.439V21.4829C118.439 22.3618 119.057 23.0453 119.773 23.0453H123.061C125.535 23.0453 126.999 21.2225 127.65 18.8789C128.074 18.7813 128.757 18.8789 129.115 19.0417C128.855 20.7017 128.692 22.85 128.236 24.4775C128.236 24.4775 125.307 24.4124 123.744 24.4124H116.095C116.095 24.4124 112.645 24.445 111.05 24.4775C110.855 24.2822 110.855 23.5661 111.05 23.3708C113.328 23.2732 113.882 23.143 113.882 20.4413V7.42135C113.882 4.71971 113.328 4.55696 111.05 4.45931C110.855 4.26401 110.855 3.54791 111.05 3.35262C112.677 3.38517 116.063 3.41772 116.063 3.41772H125.665C126.446 3.41772 126.706 3.38517 127.26 3.28752C127.357 3.28752 127.39 3.32007 127.39 3.38517C127.455 3.64556 127.618 6.77036 127.781 8.1049C127.455 8.26765 126.772 8.33275 126.381 8.26765C125.665 6.02171 124.981 4.78481 122.54 4.78481H119.773C118.992 4.78481 118.439 5.59856 118.439 6.37976V12.5317H121.075ZM151.067 9.24711L147.668 0.739746H149.552L151.668 6.35739L153.772 0.739746H155.655L152.269 9.24711H151.067ZM147.009 9.24711V0.739746H149.148V9.24711H147.009ZM154.176 9.24711V0.739746H156.325V9.24711H154.176ZM140.791 9.24711V1.47952H142.94V9.24711H140.791ZM138.201 2.50826V0.739746H145.53V2.50826H138.201Z" fill="#212630"/>
</g>
</g>
<defs>
<clipPath id="clip0_987_9067">
<rect width="156.831" height="25.1522" fill="white"/>
</clipPath>
<clipPath id="clip1_987_9067">
<rect width="156.831" height="25.1522" fill="white"/>
</clipPath>
</defs>
</svg>
