<?xml version="1.0" encoding="UTF-8"?>
<svg width="257px" height="41px" viewBox="0 0 257 41" version="1.1" xmlns="http://www.w3.org/2000/svg" xmlns:xlink="http://www.w3.org/1999/xlink">
    <title>Axis Logo</title>
    <g id="Header" stroke="none" stroke-width="1" fill="none" fill-rule="evenodd">
        <g id="Header_1680x1050" transform="translate(-280.000000, -42.000000)" fill="#FFFFFF">
            <g id="Group-2" transform="translate(-1080.000000, 0.000000)">
                <g id="Axis-Logo" transform="translate(1360.000000, 42.000000)">
                    <polygon id="Fill-4" points="46 41 31.6894619 41 23 25 37.308194 25"></polygon>
                    <polygon id="Fill-6" points="23.6208855 0 31 12.3777046 14.6930978 40 0 40"></polygon>
                    <path d="M89.4416687,14.76014 C89.1405513,14.2638778 88.7787435,13.8988389 88.3585796,13.6650231 C87.9384157,13.4288214 87.4155451,13.3142993 86.7852992,13.3142993 C86.0780233,13.3142993 85.5364788,13.4765389 85.1629998,13.8057897 C84.7895207,14.1326547 84.6027812,14.5454112 84.6027812,15.0416733 C84.6027812,15.871958 85.1980134,16.4636552 86.390812,16.811993 L88.0644649,17.3154128 C89.4136578,17.7162399 90.4080457,18.2769206 91.0452943,18.9926833 C91.6802086,19.7108319 92,20.5649753 92,21.5574996 C92,22.1873708 91.8786193,22.7742962 91.6335237,23.3158899 C91.3930966,23.8598696 91.0452943,24.3298871 90.592451,24.7235565 C90.1396076,25.1196119 89.5910603,25.4321616 88.9491433,25.6588198 C88.3072262,25.8878638 87.5929476,26 86.8063074,26 C85.2166874,26 83.9655327,25.6397328 83.0481748,24.9144266 C82.1284827,24.1915063 81.5799354,23.1464928 81.3955302,21.7770002 L83.834815,21.3165262 C83.9772039,22.2136154 84.303998,22.8816606 84.8105289,23.3158899 C85.3123914,23.7525052 85.9799851,23.9696199 86.8063074,23.9696199 C87.6559722,23.9696199 88.314229,23.7596628 88.774075,23.3373628 C89.2315868,22.9150628 89.4626769,22.3686973 89.4626769,21.6982663 C89.4626769,21.3356132 89.4019866,21.0278352 89.2852744,20.7725465 C89.166228,20.5196437 89.0004966,20.2929855 88.783412,20.0997296 C88.5663273,19.9040878 88.3118947,19.7394624 88.0154457,19.6058533 C87.721331,19.4722443 87.4015396,19.3529505 87.06074,19.2432003 L85.4477775,18.7612534 C84.294661,18.4129155 83.442662,17.9285828 82.8894462,17.3034834 C82.3385647,16.6807698 82.0631239,15.9268331 82.0631239,15.0416733 C82.0631239,14.4929219 82.1751676,13.9871163 82.3969208,13.5242564 C82.6210082,13.0613965 82.9407996,12.6653412 83.3539608,12.3384762 C83.7647877,12.0092254 84.2573131,11.7515508 84.8268686,11.5630666 C85.3987584,11.3769683 86.0383412,11.2815333 86.7479513,11.2815333 C87.9524212,11.2815333 88.9351378,11.5058056 89.6961013,11.9567361 C90.4593991,12.4052807 91.0289546,13.0112931 91.4094363,13.7747733 L89.4416687,14.76014 Z M76.5753166,25.7399396 L79.0729575,25.7399396 L79.0729575,11.5225068 L76.5753166,11.5225068 L76.5753166,25.7399396 Z M66.4236901,18.2983935 L61.7411969,11.5225068 L64.6123169,11.5225068 L67.8802583,16.4302529 L71.1645394,11.5225068 L73.9983114,11.5225068 L69.2574621,18.3198664 L74.3927986,25.7399396 L71.5193444,25.7399396 L67.8195679,20.2715126 L64.0824435,25.7399396 L61.1903154,25.7399396 L66.4236901,18.2983935 Z M50.4294512,20.5315731 L55.4457412,20.5315731 L52.9877825,15.6643868 L50.4294512,20.5315731 Z M56.4494661,22.5428662 L49.3860442,22.5428662 L47.6750435,25.7399396 L45,25.7399396 L53.0064564,11 L60.8565185,25.7399396 L58.1417929,25.7399396 L56.4494661,22.5428662 Z" id="Fill-8"></path>
                    <path d="M107.697825,20.03669 C107.432037,19.5673443 107.168622,19.0551144 106.909954,18.5 C106.648912,17.9448856 106.404483,17.3850064 106.179038,16.8227446 C106.112591,17.5732211 106.017666,18.330845 105.899011,19.0932338 C105.777983,19.8556226 105.645089,20.579892 105.497956,21.261277 L104.579565,25.6593075 L102,25.6593075 L105.239288,11 L111.001187,21.1802732 L116.758339,11 L120,25.6593075 L117.420435,25.6593075 L116.49967,21.261277 C116.350165,20.579892 116.217271,19.8556226 116.089123,19.0932338 C115.960976,18.330845 115.863678,17.5732211 115.799604,16.8227446 C115.571786,17.3850064 115.32973,17.9448856 115.068688,18.5 C114.81002,19.0551144 114.553724,19.5673443 114.297429,20.03669 L111.001187,26 L107.697825,20.03669 Z" id="Fill-10"></path>
                    <path d="M125.705314,22.7387017 C126.383575,23.4165982 127.315556,23.756779 128.498744,23.756779 C129.686957,23.756779 130.616425,23.4165982 131.297198,22.7387017 C131.972947,22.0608053 132.312077,21.104355 132.312077,19.8718159 L132.312077,11 L135,11 L135,19.9556286 C135,20.8677075 134.856812,21.6959737 134.565411,22.4379622 C134.276522,23.1774856 133.857005,23.8134758 133.304348,24.3385374 C132.756715,24.863599 132.07343,25.272802 131.264541,25.5636812 C130.45314,25.8545604 129.528696,26 128.498744,26 C127.45372,26 126.531787,25.8545604 125.727923,25.5636812 C124.921546,25.272802 124.245797,24.863599 123.69314,24.3385374 C123.142995,23.8134758 122.723478,23.1774856 122.434589,22.4379622 C122.1457,21.6959737 122,20.8677075 122,19.9556286 L122,11 L124.690435,11 L124.690435,19.8718159 C124.690435,21.104355 125.027053,22.0608053 125.705314,22.7387017" id="Fill-12"></path>
                    <polygon id="Fill-14" points="136 11 148 11 148 13.1003524 143.321407 13.1003524 143.321407 25 140.678593 25 140.678593 13.1003524 136 13.1003524"></polygon>
                    <path d="M152.707826,22.7387017 C153.386087,23.4165982 154.315556,23.756779 155.501256,23.756779 C156.686957,23.756779 157.618937,23.4165982 158.297198,22.7387017 C158.972947,22.0608053 159.312077,21.104355 159.312077,19.8718159 L159.312077,11 L162,11 L162,19.9556286 C162,20.8677075 161.856812,21.6959737 161.565411,22.4379622 C161.276522,23.1774856 160.857005,23.8134758 160.30686,24.3385374 C159.756715,24.863599 159.075942,25.272802 158.264541,25.5636812 C157.45314,25.8545604 156.531208,26 155.501256,26 C154.456232,26 153.531787,25.8545604 152.727923,25.5636812 C151.924058,25.272802 151.245797,24.863599 150.695652,24.3385374 C150.142995,23.8134758 149.72599,23.1774856 149.434589,22.4379622 C149.1457,21.6959737 149,20.8677075 149,19.9556286 L149,11 L151.690435,11 L151.690435,19.8718159 C151.690435,21.104355 152.027053,22.0608053 152.707826,22.7387017" id="Fill-16"></path>
                    <path d="M168.478581,20.699741 L173.540262,20.699741 L171.060062,15.7466818 L168.478581,20.699741 Z M174.553069,22.7465199 L167.428088,22.7465199 L165.699249,26 L163,26 L171.078905,11 L179,26 L176.26071,26 L174.553069,22.7465199 Z" id="Fill-18"></path>
                    <polygon id="Fill-20" points="181 11 183.340077 11 183.340077 22.8996476 189 22.8996476 189 25 181 25"></polygon>
                    <polygon id="Fill-22" points="199 11 208 11 208 13.1003524 201.532877 13.1003524 201.532877 16.8029871 207.420042 16.8029871 207.420042 18.9009901 201.532877 18.9009901 201.532877 25 199 25"></polygon>
                    <path d="M213.707826,22.7387017 C214.386087,23.4165982 215.318068,23.756779 216.501256,23.756779 C217.686957,23.756779 218.618937,23.4165982 219.297198,22.7387017 C219.972947,22.0608053 220.312077,21.104355 220.312077,19.8718159 L220.312077,11 L223,11 L223,19.9556286 C223,20.8677075 222.856812,21.6959737 222.565411,22.4379622 C222.279034,23.1774856 221.857005,23.8134758 221.30686,24.3385374 C220.756715,24.863599 220.075942,25.272802 219.264541,25.5636812 C218.45314,25.8545604 217.531208,26 216.501256,26 C215.456232,26 214.531787,25.8545604 213.727923,25.5636812 C212.924058,25.272802 212.245797,24.863599 211.695652,24.3385374 C211.142995,23.8134758 210.72599,23.1774856 210.434589,22.4379622 C210.1457,21.6959737 210,20.8677075 210,19.9556286 L210,11 L212.690435,11 L212.690435,19.8718159 C212.690435,21.104355 213.027053,22.0608053 213.707826,22.7387017" id="Fill-24"></path>
                    <polygon id="Fill-26" points="228.598349 16.1738031 228.598349 25.5212514 226 25.5212514 226 11 238.401651 20.8261969 238.401651 11.3981672 241 11.3981672 241 26"></polygon>
                    <path d="M249.118072,22.8996476 C249.944578,22.8996476 250.681928,22.7845276 251.33253,22.5542876 C251.980723,22.3216983 252.53012,21.992784 252.978313,21.5628461 C253.424096,21.1352576 253.766265,20.6136936 254.00241,19.9981541 C254.238554,19.3849639 254.359036,18.7012922 254.359036,17.9494882 C254.359036,17.2094311 254.238554,16.5398557 254.00241,15.9407619 C253.766265,15.3393187 253.424096,14.8271522 252.978313,14.4042625 C252.53012,13.9837221 251.980723,13.6595066 251.33253,13.4339654 C250.681928,13.2107736 249.944578,13.098003 249.118072,13.098003 L246.578313,13.098003 L246.578313,22.8996476 L249.118072,22.8996476 Z M244,11 L249.178313,11 C250.359036,11 251.431325,11.1715053 252.39759,11.5145159 C253.366265,11.8575264 254.187952,12.3368015 254.86747,12.9499916 C255.542169,13.5631817 256.06747,14.2961906 256.440964,15.1466689 C256.812048,15.9971472 257,16.9322034 257,17.9494882 C257,18.9785199 256.812048,19.925323 256.440964,20.792247 C256.06747,21.6568216 255.542169,22.4015774 254.86747,23.0288639 C254.187952,23.6561504 253.371084,24.1401242 252.409639,24.4831348 C251.448193,24.8261453 250.371084,25 249.178313,25 L244,25 L244,11 Z" id="Fill-28"></path>
                </g>
            </g>
        </g>
    </g>
</svg>