<svg width="26" height="26" viewBox="0 0 26 26" fill="none" xmlns="http://www.w3.org/2000/svg">
<g clip-path="url(#clip0_403_49165)">
<rect x="1" y="1" width="24" height="24" rx="12" fill="white"/>
<path d="M13.0001 1C6.37612 1 1.00012 6.376 1.00012 13C1.00012 19.624 6.37612 25 13.0001 25C19.6241 25 25.0001 19.624 25.0001 13C25.0001 6.376 19.6241 1 13.0001 1ZM17.2001 13.9H10.9721L13.0361 15.964C13.3841 16.312 13.3841 16.888 13.0361 17.236C12.8561 17.416 12.6281 17.5 12.4001 17.5C12.1721 17.5 11.9441 17.416 11.7641 17.236L8.16412 13.636C7.81612 13.288 7.81612 12.712 8.16412 12.364L11.7641 8.764C12.1121 8.416 12.6881 8.416 13.0361 8.764C13.3841 9.112 13.3841 9.688 13.0361 10.036L10.9721 12.1H17.2001C17.6921 12.1 18.1001 12.508 18.1001 13C18.1001 13.492 17.6921 13.9 17.2001 13.9Z" fill="#2563EB"/>
</g>
<rect x="0.5" y="0.5" width="25" height="25" rx="12.5" stroke="#F9FAFB"/>
<defs>
<clipPath id="clip0_403_49165">
<rect x="1" y="1" width="24" height="24" rx="12" fill="white"/>
</clipPath>
</defs>
</svg>
