 <svg
                  width="24"
                  height="24"
                  viewBox="0 0 24 24"
                  fill="none"
                  xmlns="http://www.w3.org/2000/svg"
                >
                  <path
                    d="M0.625 12C0.625 14.4562 0.757426 16.3874 1.09546 17.9084C1.43191 19.4223 1.96369 20.4913 2.73619 21.2638C3.50869 22.0363 4.57771 22.5681 6.09162 22.9045C7.61263 23.2426 9.54377 23.375 12 23.375C14.4562 23.375 16.3874 23.2426 17.9084 22.9045C19.4223 22.5681 20.4913 22.0363 21.2638 21.2638C22.0363 20.4913 22.5681 19.4223 22.9045 17.9084C23.2426 16.3874 23.375 14.4562 23.375 12C23.375 9.54377 23.2426 7.61263 22.9045 6.09162C22.5681 4.57771 22.0363 3.50869 21.2638 2.73619C20.4913 1.96369 19.4223 1.43191 17.9084 1.09546C16.3874 0.757427 14.4562 0.625 12 0.625C9.54377 0.625 7.61263 0.757427 6.09162 1.09546C4.57771 1.43191 3.50869 1.96369 2.73619 2.73619C1.96369 3.50869 1.43191 4.57771 1.09546 6.09162C0.757426 7.61263 0.625 9.54377 0.625 12Z"
                    stroke="#15130E"
                    stroke-width="1.25"
                    stroke-linecap="round"
                    stroke-linejoin="round"
                  />
                  <path
                    d="M11.1577 8.18182L12.9195 6.33429C13.3244 5.90978 14.0046 5.88646 14.4388 6.2822L17.658 9.21592C18.0923 9.61167 18.1161 10.2766 17.7113 10.7011L15.8182 12.6864M11.1577 8.18182L6.28868 13.2877C6.08633 13.4999 5.98271 13.7844 6.00236 14.0738L6.20234 17.0187C6.23993 17.5724 6.71141 18.0021 7.27903 18L10.2983 17.9888C10.595 17.9877 10.8781 17.8667 11.0805 17.6545L15.8182 12.6864M11.1577 8.18182L15.8182 12.6864"
                    stroke="#15130E"
                    stroke-width="1.25"
                    stroke-linejoin="round"
                  />
                </svg>