<svg width="162" height="18" viewBox="0 0 162 18" fill="none" xmlns="http://www.w3.org/2000/svg">
<path d="M1.72281 13.0942C1.54335 13.0942 1.40427 13.0449 1.30557 12.9462C1.21584 12.8385 1.17097 12.6949 1.17097 12.5155V4.07637C1.17097 3.88794 1.22033 3.74886 1.31903 3.65913C1.41773 3.56043 1.55681 3.51107 1.73627 3.51107H4.92617C5.94011 3.51107 6.72076 3.76232 7.26811 4.2648C7.81546 4.75832 8.08914 5.45821 8.08914 6.36448C8.08914 7.26178 7.81546 7.96167 7.26811 8.46416C6.72076 8.96665 5.94011 9.21789 4.92617 9.21789H2.27465V12.5155C2.27465 12.6949 2.22979 12.8385 2.14006 12.9462C2.05033 13.0449 1.91124 13.0942 1.72281 13.0942ZM2.27465 8.28919H4.79157C5.51838 8.28919 6.06573 8.12767 6.43363 7.80465C6.81049 7.47265 6.99892 6.99259 6.99892 6.36448C6.99892 5.7274 6.81049 5.24735 6.43363 4.92432C6.06573 4.59232 5.51838 4.42632 4.79157 4.42632H2.27465V8.28919ZM11.9699 13.1211C11.3328 13.1211 10.781 12.9821 10.3144 12.7039C9.84777 12.4257 9.48437 12.0354 9.22415 11.5329C8.97291 11.0215 8.84729 10.4203 8.84729 9.72935C8.84729 9.20892 8.91907 8.74232 9.06264 8.32956C9.20621 7.90783 9.41707 7.54892 9.69523 7.25281C9.9734 6.9567 10.3009 6.73237 10.6778 6.57983C11.0636 6.41832 11.4943 6.33756 11.9699 6.33756C12.607 6.33756 13.1588 6.47664 13.6254 6.75481C14.092 7.03297 14.4509 7.42778 14.7022 7.93924C14.9624 8.44173 15.0925 9.03843 15.0925 9.72935C15.0925 10.2498 15.0207 10.7164 14.8771 11.1291C14.7336 11.5419 14.5227 11.9008 14.2445 12.2059C13.9664 12.502 13.6344 12.7308 13.2485 12.8923C12.8717 13.0449 12.4455 13.1211 11.9699 13.1211ZM11.9699 12.2463C12.3737 12.2463 12.7281 12.1476 13.0332 11.9502C13.3383 11.7528 13.5716 11.4656 13.7331 11.0888C13.9036 10.7119 13.9888 10.2588 13.9888 9.72935C13.9888 8.91281 13.8049 8.28919 13.437 7.85848C13.078 7.42778 12.589 7.21243 11.9699 7.21243C11.5571 7.21243 11.1982 7.31113 10.8931 7.50854C10.597 7.69697 10.3637 7.97962 10.1932 8.35648C10.0317 8.72438 9.95096 9.182 9.95096 9.72935C9.95096 10.5369 10.1349 11.1605 10.5028 11.6002C10.8707 12.0309 11.3597 12.2463 11.9699 12.2463ZM18.8992 13.0942C18.7467 13.0942 18.6121 13.0538 18.4954 12.9731C18.3788 12.8923 18.2845 12.7622 18.2128 12.5828L16.2073 7.13167C16.1535 6.97913 16.1355 6.84454 16.1535 6.72789C16.1804 6.61124 16.2387 6.52151 16.3284 6.4587C16.4182 6.39589 16.5303 6.36448 16.6649 6.36448C16.7995 6.36448 16.9072 6.39589 16.988 6.4587C17.0777 6.52151 17.1495 6.63816 17.2033 6.80864L19.0876 12.1924H18.7646L20.7028 6.80864C20.7656 6.64713 20.8418 6.53497 20.9316 6.47216C21.0303 6.40037 21.1559 6.36448 21.3084 6.36448C21.452 6.36448 21.5731 6.40037 21.6718 6.47216C21.7705 6.54394 21.8468 6.6561 21.9007 6.80864L23.7984 12.1924H23.4889L25.4001 6.78173C25.4629 6.62021 25.5392 6.51254 25.6289 6.4587C25.7187 6.39589 25.8263 6.36448 25.952 6.36448C26.0955 6.36448 26.2032 6.40037 26.275 6.47216C26.3557 6.54394 26.4006 6.63816 26.4096 6.75481C26.4186 6.87146 26.3961 6.99708 26.3423 7.13167L24.3368 12.5828C24.274 12.7532 24.1798 12.8834 24.0542 12.9731C23.9375 13.0538 23.8029 13.0942 23.6504 13.0942C23.4978 13.0942 23.3633 13.0538 23.2466 12.9731C23.13 12.8834 23.0402 12.7532 22.9774 12.5828L20.9854 7.11821H21.5642L19.5856 12.5828C19.5228 12.7532 19.4331 12.8834 19.3164 12.9731C19.1998 13.0538 19.0607 13.0942 18.8992 13.0942ZM30.8106 13.1211C30.1197 13.1211 29.523 12.9865 29.0205 12.7174C28.527 12.4392 28.1412 12.0489 27.863 11.5464C27.5938 11.0439 27.4592 10.4427 27.4592 9.74281C27.4592 9.06086 27.5938 8.46865 27.863 7.96616C28.1322 7.4547 28.5001 7.0554 28.9667 6.76827C29.4422 6.48113 29.9896 6.33756 30.6087 6.33756C31.0484 6.33756 31.4432 6.41383 31.7932 6.56637C32.1431 6.70994 32.4392 6.92081 32.6815 7.19897C32.9327 7.47713 33.1212 7.81362 33.2468 8.20843C33.3814 8.60324 33.4487 9.0474 33.4487 9.54092C33.4487 9.68448 33.4083 9.79216 33.3275 9.86394C33.2468 9.92675 33.1301 9.95816 32.9776 9.95816H28.2937V9.24481H32.7219L32.5065 9.41978C32.5065 8.93524 32.4347 8.52697 32.2912 8.19497C32.1476 7.854 31.9367 7.59378 31.6586 7.41432C31.3894 7.23486 31.0484 7.14513 30.6356 7.14513C30.178 7.14513 29.7877 7.25281 29.4647 7.46816C29.1506 7.67454 28.9128 7.96616 28.7513 8.34302C28.5898 8.71092 28.509 9.14162 28.509 9.63513V9.71589C28.509 10.5414 28.7065 11.1695 29.1013 11.6002C29.505 12.0309 30.0748 12.2463 30.8106 12.2463C31.1157 12.2463 31.4163 12.2059 31.7124 12.1251C32.0175 12.0444 32.3136 11.9098 32.6007 11.7214C32.7263 11.6406 32.8385 11.6047 32.9372 11.6137C33.0449 11.6137 33.1301 11.6451 33.1929 11.7079C33.2558 11.7617 33.2961 11.8335 33.3141 11.9232C33.341 12.004 33.332 12.0937 33.2872 12.1924C33.2513 12.2911 33.175 12.3764 33.0583 12.4482C32.7622 12.6635 32.4123 12.8295 32.0085 12.9462C31.6047 13.0628 31.2054 13.1211 30.8106 13.1211ZM35.5783 13.0942C35.3989 13.0942 35.2598 13.0449 35.1611 12.9462C35.0713 12.8475 35.0265 12.7084 35.0265 12.5289V6.91632C35.0265 6.73686 35.0713 6.60227 35.1611 6.51254C35.2508 6.41383 35.3809 6.36448 35.5514 6.36448C35.7219 6.36448 35.852 6.41383 35.9417 6.51254C36.0404 6.60227 36.0898 6.73686 36.0898 6.91632V8.00654H35.9552C36.0987 7.47713 36.3724 7.06886 36.7762 6.78173C37.18 6.49459 37.678 6.34205 38.2702 6.3241C38.4048 6.31513 38.5125 6.34654 38.5932 6.41832C38.674 6.48113 38.7189 6.59329 38.7278 6.75481C38.7368 6.90735 38.7009 7.02848 38.6202 7.11821C38.5394 7.20794 38.4138 7.26178 38.2433 7.27973L38.0279 7.30664C37.4178 7.36048 36.9467 7.55789 36.6147 7.89886C36.2917 8.23086 36.1302 8.68848 36.1302 9.27173V12.5289C36.1302 12.7084 36.0808 12.8475 35.9821 12.9462C35.8924 13.0449 35.7578 13.0942 35.5783 13.0942ZM42.7191 13.1211C42.0282 13.1211 41.4315 12.9865 40.929 12.7174C40.4355 12.4392 40.0496 12.0489 39.7715 11.5464C39.5023 11.0439 39.3677 10.4427 39.3677 9.74281C39.3677 9.06086 39.5023 8.46865 39.7715 7.96616C40.0407 7.4547 40.4085 7.0554 40.8751 6.76827C41.3507 6.48113 41.8981 6.33756 42.5172 6.33756C42.9569 6.33756 43.3517 6.41383 43.7016 6.56637C44.0516 6.70994 44.3477 6.92081 44.59 7.19897C44.8412 7.47713 45.0296 7.81362 45.1553 8.20843C45.2898 8.60324 45.3571 9.0474 45.3571 9.54092C45.3571 9.68448 45.3168 9.79216 45.236 9.86394C45.1553 9.92675 45.0386 9.95816 44.8861 9.95816H40.2022V9.24481H44.6303L44.415 9.41978C44.415 8.93524 44.3432 8.52697 44.1996 8.19497C44.0561 7.854 43.8452 7.59378 43.567 7.41432C43.2978 7.23486 42.9569 7.14513 42.5441 7.14513C42.0865 7.14513 41.6962 7.25281 41.3731 7.46816C41.0591 7.67454 40.8213 7.96616 40.6598 8.34302C40.4983 8.71092 40.4175 9.14162 40.4175 9.63513V9.71589C40.4175 10.5414 40.6149 11.1695 41.0097 11.6002C41.4135 12.0309 41.9833 12.2463 42.7191 12.2463C43.0242 12.2463 43.3248 12.2059 43.6209 12.1251C43.926 12.0444 44.2221 11.9098 44.5092 11.7214C44.6348 11.6406 44.747 11.6047 44.8457 11.6137C44.9534 11.6137 45.0386 11.6451 45.1014 11.7079C45.1642 11.7617 45.2046 11.8335 45.2226 11.9232C45.2495 12.004 45.2405 12.0937 45.1956 12.1924C45.1597 12.2911 45.0835 12.3764 44.9668 12.4482C44.6707 12.6635 44.3208 12.8295 43.917 12.9462C43.5132 13.0628 43.1139 13.1211 42.7191 13.1211ZM49.425 13.1211C48.8417 13.1211 48.3303 12.9821 47.8906 12.7039C47.4599 12.4257 47.1234 12.0354 46.8811 11.5329C46.6478 11.0215 46.5312 10.4203 46.5312 9.72935C46.5312 9.02946 46.6478 8.42827 46.8811 7.92578C47.1234 7.41432 47.4599 7.024 47.8906 6.75481C48.3303 6.47664 48.8417 6.33756 49.425 6.33756C50.0172 6.33756 50.5241 6.48562 50.9459 6.78173C51.3676 7.07783 51.6503 7.47713 51.7938 7.97962H51.6458V3.9687C51.6458 3.78924 51.6906 3.65464 51.7804 3.56491C51.8791 3.46621 52.0181 3.41686 52.1976 3.41686C52.3681 3.41686 52.4982 3.46621 52.5879 3.56491C52.6866 3.65464 52.736 3.78924 52.736 3.9687V12.5289C52.736 12.7084 52.6911 12.8475 52.6014 12.9462C52.5117 13.0449 52.3771 13.0942 52.1976 13.0942C52.0271 13.0942 51.8925 13.0449 51.7938 12.9462C51.7041 12.8475 51.6592 12.7084 51.6592 12.5289V11.2503L51.8073 11.4387C51.6637 11.9502 51.3766 12.3584 50.9459 12.6635C50.5241 12.9686 50.0172 13.1211 49.425 13.1211ZM49.6538 12.2463C50.0575 12.2463 50.412 12.1476 50.7171 11.9502C51.0221 11.7528 51.2554 11.4656 51.417 11.0888C51.5874 10.7119 51.6727 10.2588 51.6727 9.72935C51.6727 8.91281 51.4887 8.28919 51.1208 7.85848C50.7619 7.42778 50.2729 7.21243 49.6538 7.21243C49.241 7.21243 48.8821 7.31113 48.577 7.50854C48.2809 7.69697 48.0476 7.97962 47.8771 8.35648C47.7156 8.72438 47.6348 9.182 47.6348 9.72935C47.6348 10.5369 47.8188 11.1605 48.1867 11.6002C48.5546 12.0309 49.0436 12.2463 49.6538 12.2463ZM59.0057 13C58.8083 13 58.6557 12.9506 58.5481 12.8519C58.4494 12.7443 58.4 12.5917 58.4 12.3943V4.11675C58.4 3.91935 58.4494 3.77129 58.5481 3.67259C58.6557 3.56491 58.8083 3.51107 59.0057 3.51107H62.1956C62.8506 3.51107 63.4024 3.60978 63.8511 3.80718C64.3087 3.99562 64.6587 4.27378 64.9009 4.64167C65.1432 5.00956 65.2643 5.45821 65.2643 5.98762C65.2643 6.57983 65.0894 7.07335 64.7394 7.46816C64.3984 7.86297 63.9318 8.12319 63.3396 8.24881V8.06038C64.0126 8.14113 64.5375 8.3834 64.9144 8.78719C65.3002 9.19097 65.4931 9.72486 65.4931 10.3889C65.4931 11.2323 65.2195 11.8784 64.6721 12.327C64.1248 12.7757 63.3531 13 62.3571 13H59.0057ZM59.4768 12.1117H62.2494C62.9672 12.1117 63.5056 11.9681 63.8645 11.681C64.2235 11.3938 64.4029 10.9586 64.4029 10.3754C64.4029 9.78319 64.2235 9.348 63.8645 9.06984C63.5056 8.7827 62.9672 8.63913 62.2494 8.63913H59.4768V12.1117ZM59.4768 7.75081H62.0341C62.7339 7.75081 63.2634 7.60724 63.6223 7.3201C63.9902 7.03297 64.1741 6.62021 64.1741 6.08183C64.1741 5.52551 63.9902 5.10826 63.6223 4.8301C63.2634 4.54297 62.7339 4.3994 62.0341 4.3994H59.4768V7.75081ZM68.8012 15.5169C68.6666 15.5169 68.559 15.481 68.4782 15.4092C68.3974 15.3375 68.3481 15.2388 68.3301 15.1131C68.3212 14.9965 68.3436 14.8754 68.3974 14.7497L69.3261 12.6635V13.1346L66.7419 7.13167C66.6881 6.99708 66.6701 6.87146 66.6881 6.75481C66.706 6.63816 66.7599 6.54394 66.8496 6.47216C66.9393 6.40037 67.065 6.36448 67.2265 6.36448C67.37 6.36448 67.4822 6.39589 67.563 6.4587C67.6437 6.52151 67.7155 6.63367 67.7783 6.79518L69.9857 12.2059H69.6223L71.8565 6.79518C71.9283 6.63367 72.0046 6.52151 72.0853 6.4587C72.1661 6.39589 72.2827 6.36448 72.4353 6.36448C72.5789 6.36448 72.6865 6.40037 72.7583 6.47216C72.8391 6.54394 72.8839 6.63816 72.8929 6.75481C72.9109 6.86248 72.8929 6.98362 72.8391 7.11821L69.3934 15.0862C69.3217 15.2477 69.2409 15.3599 69.1512 15.4227C69.0704 15.4855 68.9538 15.5169 68.8012 15.5169Z" fill="#111827"/>
<path d="M89.4568 3.48979C88.5555 3.34467 88.2113 3 86.6873 3C85.9334 3 84.9665 3.27211 84.2946 3.87074C83.6719 4.41495 83.2294 5.26754 83.2294 6.13828C83.2294 6.84575 83.3933 7.69835 83.7702 8.24256C84.5241 9.36726 85.8843 10.0022 86.5889 10.5282C87.3428 11.1087 88.0802 11.8343 88.0802 12.8502C88.0802 13.7572 87.3755 14.3559 86.3759 14.3559C85.2779 14.3559 84.1471 13.3581 83.8194 11.7074C83.5408 11.5985 83.2622 11.6892 83 11.7618C83 13.1223 83.1311 14.0838 83.3114 14.7549C84.2455 14.7549 84.2782 15.1178 86.5562 15.1178C87.5558 15.1178 88.3424 14.8094 89.0307 14.1382C89.6043 13.5577 90.1451 12.7232 90.1451 11.5985C90.1451 10.6552 89.7682 10.0203 89.2929 9.42168C88.6538 8.64165 87.7361 8.0793 87.0969 7.71649C86.4414 7.35368 85.2779 6.41039 85.2779 5.37639C85.2779 4.36053 85.8187 3.74375 86.6709 3.74375C88.0638 3.74375 88.5227 5.14056 88.8177 6.33782C89.0471 6.41039 89.4568 6.41039 89.6371 6.24712C89.6371 5.28568 89.5715 4.54193 89.4568 3.48979Z" fill="#111827"/>
<path d="M104.15 15.1178C105.739 15.1178 107.198 14.2833 108.312 12.6688C108.23 12.5055 107.952 12.2879 107.771 12.2879C106.608 13.7028 105.28 14.1745 104.133 14.1745C102.232 14.1745 100.725 11.7074 100.725 8.87747C100.725 6.06572 102.036 3.74375 103.986 3.74375C106.247 3.74375 106.985 5.1587 107.411 6.71877C107.607 6.79133 107.919 6.73691 108.115 6.62807C108.034 5.68477 107.902 4.81404 107.755 3.81632C106.919 3.72561 106.182 3 104.166 3C100.954 3 98.25 5.23126 98.25 9.22214C98.25 10.9273 98.9055 12.9409 100.233 13.9749C101.282 14.8094 102.56 15.1178 104.15 15.1178Z" fill="#111827"/>
<path d="M119.763 5.46709C119.763 3.96144 120.008 3.87074 121.27 3.81632C121.369 3.70747 121.369 3.30839 121.27 3.19954C120.467 3.21768 119.369 3.23582 118.599 3.23582C117.845 3.23582 117.026 3.21768 116.206 3.19954C116.108 3.30839 116.108 3.70747 116.206 3.81632C117.19 3.87074 117.468 3.96144 117.468 5.46709V10.6552C117.468 12.4148 117.96 13.7028 118.894 14.3559C119.91 15.0996 121.418 15.1178 122.204 15.1178C125.564 15.1178 126.629 12.8139 126.629 9.58495V5.46709C126.629 3.96144 126.924 3.92516 127.891 3.81632C127.989 3.70747 127.989 3.30839 127.891 3.19954C127.252 3.21768 126.58 3.23582 126.137 3.23582C125.646 3.23582 124.794 3.21768 124.056 3.19954C123.958 3.30839 123.958 3.70747 124.056 3.81632C125.285 3.9433 125.564 3.96144 125.564 5.46709V9.91147C125.564 11.9432 125.318 14.3559 122.549 14.3559C121.762 14.3559 121.09 13.9749 120.598 13.4488C119.795 12.5962 119.763 11.2357 119.763 10.0566V5.46709Z" fill="#111827"/>
<path d="M138.839 4.74147C138.839 4.2154 138.921 3.96144 139.987 3.96144C140.74 3.96144 141.658 4.28797 141.658 6.06572C141.658 7.51695 140.921 8.11558 139.757 8.11558H138.839V4.74147ZM138.839 8.87747H140.003C141.691 8.87747 142.428 9.98403 142.428 11.5441C142.428 12.6325 142.084 14.2107 139.921 14.2107C138.938 14.2107 138.839 13.9386 138.839 13.4126V8.87747ZM137.709 3.23582C137.053 3.23582 135.185 3.19954 135.185 3.19954C135.021 3.30839 135.021 3.70747 135.185 3.81632C136.086 3.87074 136.545 3.9433 136.545 5.44895V12.7232C136.545 14.2289 136.086 14.3014 135.185 14.3559C135.021 14.4647 135.021 14.8638 135.185 14.9726C135.185 14.9726 137.053 14.9363 137.709 14.9363C138.364 14.9363 139.413 14.9726 140.396 14.9726C143.756 14.9726 144.837 13.4126 144.837 11.5622C144.837 9.96589 144.116 8.93189 142.379 8.42396V8.38768C143.264 7.95232 143.952 6.9546 143.952 6.02944C143.952 4.77775 143.33 3.19954 140.036 3.19954C139.216 3.19954 138.217 3.23582 137.709 3.23582Z" fill="#111827"/>
<path d="M157.718 8.31512H156.39V4.8866C156.39 4.45123 156.669 3.99772 157.062 3.99772H158.455C159.684 3.99772 160.028 4.68705 160.389 5.93874C160.585 5.97502 160.93 5.93874 161.093 5.84803C161.012 5.10428 160.93 3.36281 160.897 3.21768C160.897 3.1814 160.88 3.16326 160.831 3.16326C160.553 3.21768 160.422 3.23582 160.028 3.23582H155.194C155.194 3.23582 153.49 3.21768 152.67 3.19954C152.572 3.30839 152.572 3.70747 152.67 3.81632C153.817 3.87074 154.096 3.96144 154.096 5.46709V12.7232C154.096 14.2289 153.817 14.3014 152.67 14.3559C152.572 14.4647 152.572 14.8638 152.67 14.9726C153.473 14.9545 155.21 14.9363 155.21 14.9363H159.061C159.848 14.9363 161.323 14.9726 161.323 14.9726C161.552 14.0656 161.634 12.8683 161.765 11.9432C161.585 11.8525 161.241 11.7981 161.028 11.8525C160.7 13.1586 159.963 14.1745 158.717 14.1745H157.062C156.702 14.1745 156.39 13.7935 156.39 13.3037V9.14958H157.718C158.848 9.14958 159.16 9.49425 159.209 10.3106C159.307 10.4194 159.815 10.4194 159.914 10.3106C159.897 9.67565 159.881 9.34912 159.881 8.71421C159.881 8.11558 159.897 7.69835 159.914 7.15414C159.815 7.0453 159.307 7.0453 159.209 7.15414C159.16 8.15186 158.816 8.31512 157.718 8.31512Z" fill="#111827"/>
</svg>
