<svg width="87" height="14" viewBox="0 0 87 14" fill="none" xmlns="http://www.w3.org/2000/svg">
<path d="M7.578 2.142C7.704 3.186 7.776 3.924 7.776 4.878C7.578 5.04 7.128 5.04 6.876 4.968C6.552 3.78 6.048 2.394 4.518 2.394C3.582 2.394 2.988 3.006 2.988 4.014C2.988 5.04 4.266 5.976 4.986 6.336C5.688 6.696 6.696 7.254 7.398 8.028C7.92 8.622 8.334 9.252 8.334 10.188C8.334 11.304 7.74 12.132 7.11 12.708C6.354 13.374 5.49 13.68 4.392 13.68C1.89 13.68 1.854 13.32 0.828 13.32C0.63 12.654 0.486 11.7 0.486 10.35C0.774 10.278 1.08 10.188 1.386 10.296C1.746 11.934 2.988 12.924 4.194 12.924C5.292 12.924 6.066 12.33 6.066 11.43C6.066 10.422 5.256 9.702 4.428 9.126C3.654 8.604 2.16 7.974 1.332 6.858C0.918 6.318 0.738 5.472 0.738 4.77C0.738 3.906 1.224 3.06 1.908 2.52C2.646 1.926 3.708 1.656 4.536 1.656C6.21 1.656 6.588 1.998 7.578 2.142ZM19.8163 13.68C18.0703 13.68 16.6663 13.374 15.5143 12.546C14.0563 11.52 13.3363 9.522 13.3363 7.83C13.3363 3.87 16.3063 1.656 19.8343 1.656C22.0483 1.656 22.8583 2.376 23.7763 2.466C23.9383 3.456 24.0823 4.32 24.1723 5.256C23.9563 5.364 23.6143 5.418 23.3983 5.346C22.9303 3.798 22.1203 2.394 19.6363 2.394C17.4943 2.394 16.0543 4.698 16.0543 7.488C16.0543 10.296 17.7103 12.744 19.7983 12.744C21.0583 12.744 22.5163 12.276 23.7943 10.872C23.9923 10.872 24.2983 11.088 24.3883 11.25C23.1643 12.852 21.5623 13.68 19.8163 13.68ZM33.0653 4.104V8.658C33.0653 9.828 33.1013 11.178 33.9833 12.024C34.5233 12.546 35.2613 12.924 36.1253 12.924C39.1673 12.924 39.4373 10.53 39.4373 8.514V4.104C39.4373 2.61 39.1313 2.592 37.7813 2.466C37.6733 2.358 37.6733 1.962 37.7813 1.854C38.5913 1.872 39.5273 1.89 40.0673 1.89C40.5533 1.89 41.2913 1.872 41.9933 1.854C42.1013 1.962 42.1013 2.358 41.9933 2.466C40.9313 2.574 40.6073 2.61 40.6073 4.104V8.19C40.6073 11.394 39.4373 13.68 35.7473 13.68C34.8833 13.68 33.2273 13.662 32.1113 12.924C31.0853 12.276 30.5453 10.998 30.5453 9.252V4.104C30.5453 2.61 30.2393 2.52 29.1593 2.466C29.0513 2.358 29.0513 1.962 29.1593 1.854C30.0593 1.872 30.9593 1.89 31.7873 1.89C32.6333 1.89 33.8393 1.872 34.7213 1.854C34.8293 1.962 34.8293 2.358 34.7213 2.466C33.3353 2.52 33.0653 2.61 33.0653 4.104ZM50.1189 3.384V6.732H51.1269C52.4049 6.732 53.2149 6.138 53.2149 4.698C53.2149 2.934 52.2069 2.61 51.3789 2.61C50.2089 2.61 50.1189 2.862 50.1189 3.384ZM50.1189 7.488V11.988C50.1189 12.51 50.2269 12.78 51.3069 12.78C53.6829 12.78 54.0609 11.214 54.0609 10.134C54.0609 8.586 53.2509 7.488 51.3969 7.488H50.1189ZM48.8769 1.89C49.4349 1.89 50.5329 1.854 51.4329 1.854C55.0509 1.854 55.7349 3.42 55.7349 4.662C55.7349 5.58 54.9789 6.57 54.0069 7.002V7.038C55.9149 7.542 56.7069 8.568 56.7069 10.152C56.7069 11.988 55.5189 13.536 51.8289 13.536C50.7489 13.536 49.5969 13.5 48.8769 13.5C48.1569 13.5 46.1049 13.536 46.1049 13.536C45.9249 13.428 45.9249 13.032 46.1049 12.924C47.0949 12.87 47.5989 12.798 47.5989 11.304V4.086C47.5989 2.592 47.0949 2.52 46.1049 2.466C45.9249 2.358 45.9249 1.962 46.1049 1.854C46.1049 1.854 48.1569 1.89 48.8769 1.89ZM66.9542 6.93C68.1602 6.93 68.5382 6.768 68.5922 5.778C68.7002 5.67 69.2582 5.67 69.3662 5.778C69.3482 6.318 69.3302 6.732 69.3302 7.326C69.3302 7.956 69.3482 8.28 69.3662 8.91C69.2582 9.018 68.7002 9.018 68.5922 8.91C68.5382 8.1 68.1962 7.758 66.9542 7.758H65.4962V11.88C65.4962 12.366 65.8382 12.744 66.2342 12.744H68.0522C69.4202 12.744 70.2302 11.736 70.5902 10.44C70.8242 10.386 71.2022 10.44 71.4002 10.53C71.2562 11.448 71.1662 12.636 70.9142 13.536C70.9142 13.536 69.2942 13.5 68.4302 13.5H64.2002C64.2002 13.5 62.2922 13.518 61.4102 13.536C61.3022 13.428 61.3022 13.032 61.4102 12.924C62.6702 12.87 62.9762 12.798 62.9762 11.304V4.104C62.9762 2.61 62.6702 2.52 61.4102 2.466C61.3022 2.358 61.3022 1.962 61.4102 1.854C62.3102 1.872 64.1822 1.89 64.1822 1.89H69.4922C69.9242 1.89 70.0682 1.872 70.3742 1.818C70.4282 1.818 70.4462 1.836 70.4462 1.872C70.4822 2.016 70.5722 3.744 70.6622 4.482C70.4822 4.572 70.1042 4.608 69.8882 4.572C69.4922 3.33 69.1142 2.646 67.7642 2.646H66.2342C65.8022 2.646 65.4962 3.096 65.4962 3.528V6.93H66.9542ZM83.5392 5.11364L81.66 0.409091H82.7019L83.8716 3.51562L85.035 0.409091H86.0769L84.204 5.11364H83.5392ZM81.2956 5.11364V0.409091H82.4782V5.11364H81.2956ZM85.2587 5.11364V0.409091H86.4476V5.11364H85.2587ZM77.8567 5.11364V0.818181H79.0456V5.11364H77.8567ZM76.4249 1.38707V0.409091H80.4775V1.38707H76.4249Z" fill="white"/>
</svg>
