<svg width="150" height="20" viewBox="0 0 150 20" fill="none" xmlns="http://www.w3.org/2000/svg">
<path d="M1.99311 16.0804C1.84002 16.0804 1.72137 16.0383 1.63717 15.9541C1.56063 15.8622 1.52235 15.7397 1.52235 15.5867V8.38757C1.52235 8.22682 1.56445 8.10818 1.64865 8.03163C1.73285 7.94743 1.8515 7.90533 2.00459 7.90533H4.72578C5.59074 7.90533 6.25668 8.11966 6.72361 8.54831C7.19054 8.96931 7.424 9.56637 7.424 10.3395C7.424 11.1049 7.19054 11.702 6.72361 12.1306C6.25668 12.5593 5.59074 12.7736 4.72578 12.7736H2.46386V15.5867C2.46386 15.7397 2.42559 15.8622 2.34904 15.9541C2.2725 16.0383 2.15385 16.0804 1.99311 16.0804ZM2.46386 11.9814H4.61096C5.23097 11.9814 5.6979 11.8436 6.01174 11.568C6.33323 11.2848 6.49397 10.8753 6.49397 10.3395C6.49397 9.796 6.33323 9.38648 6.01174 9.11092C5.6979 8.8277 5.23097 8.68609 4.61096 8.68609H2.46386V11.9814ZM10.7345 16.1033C10.1911 16.1033 9.7203 15.9847 9.32226 15.7474C8.92423 15.5101 8.61422 15.1771 8.39224 14.7485C8.17791 14.3122 8.07075 13.7993 8.07075 13.2099C8.07075 12.766 8.13198 12.3679 8.25445 12.0158C8.37693 11.6561 8.55681 11.3499 8.7941 11.0973C9.03139 10.8447 9.31078 10.6533 9.63227 10.5232C9.96142 10.3854 10.3288 10.3165 10.7345 10.3165C11.278 10.3165 11.7487 10.4352 12.1468 10.6724C12.5448 10.9097 12.851 11.2465 13.0653 11.6828C13.2873 12.1115 13.3983 12.6205 13.3983 13.2099C13.3983 13.6539 13.3371 14.0519 13.2146 14.404C13.0921 14.7561 12.9122 15.0623 12.6749 15.3226C12.4377 15.5752 12.1544 15.7704 11.8253 15.9081C11.5038 16.0383 11.1402 16.1033 10.7345 16.1033ZM10.7345 15.357C11.079 15.357 11.3813 15.2728 11.6416 15.1044C11.9018 14.936 12.1009 14.6911 12.2386 14.3696C12.3841 14.0481 12.4568 13.6615 12.4568 13.2099C12.4568 12.5134 12.2999 11.9814 11.986 11.614C11.6799 11.2465 11.2627 11.0628 10.7345 11.0628C10.3824 11.0628 10.0762 11.147 9.81598 11.3154C9.56338 11.4762 9.36436 11.7173 9.21893 12.0388C9.08114 12.3526 9.01225 12.743 9.01225 13.2099C9.01225 13.8988 9.16917 14.4308 9.48301 14.8059C9.79684 15.1733 10.214 15.357 10.7345 15.357ZM16.6457 16.0804C16.5155 16.0804 16.4007 16.0459 16.3012 15.977C16.2017 15.9081 16.1213 15.7972 16.0601 15.6441L14.3493 10.9939C14.3034 10.8638 14.2881 10.749 14.3034 10.6495C14.3264 10.55 14.3761 10.4734 14.4527 10.4198C14.5292 10.3663 14.6249 10.3395 14.7397 10.3395C14.8545 10.3395 14.9464 10.3663 15.0153 10.4198C15.0918 10.4734 15.153 10.5729 15.199 10.7184L16.8064 15.3111H16.5309L18.1842 10.7184C18.2378 10.5806 18.3029 10.4849 18.3794 10.4313C18.4636 10.3701 18.5708 10.3395 18.7009 10.3395C18.8234 10.3395 18.9267 10.3701 19.0109 10.4313C19.0951 10.4926 19.1602 10.5882 19.2061 10.7184L20.8251 15.3111H20.561L22.1914 10.6954C22.245 10.5576 22.31 10.4658 22.3866 10.4198C22.4631 10.3663 22.555 10.3395 22.6621 10.3395C22.7846 10.3395 22.8765 10.3701 22.9377 10.4313C23.0066 10.4926 23.0449 10.5729 23.0525 10.6724C23.0602 10.772 23.041 10.8791 22.9951 10.9939L21.2843 15.6441C21.2307 15.7895 21.1504 15.9005 21.0432 15.977C20.9437 16.0459 20.8289 16.0804 20.6988 16.0804C20.5686 16.0804 20.4538 16.0459 20.3543 15.977C20.2548 15.9005 20.1782 15.7895 20.1247 15.6441L18.4254 10.9825H18.9191L17.2312 15.6441C17.1777 15.7895 17.1011 15.9005 17.0016 15.977C16.9021 16.0459 16.7835 16.0804 16.6457 16.0804ZM26.8069 16.1033C26.2175 16.1033 25.7085 15.9885 25.2798 15.7589C24.8588 15.5216 24.5297 15.1886 24.2924 14.76C24.0627 14.3313 23.9479 13.8185 23.9479 13.2214C23.9479 12.6397 24.0627 12.1345 24.2924 11.7058C24.522 11.2695 24.8358 10.9289 25.2339 10.6839C25.6396 10.439 26.1065 10.3165 26.6347 10.3165C27.0097 10.3165 27.3465 10.3816 27.6451 10.5117C27.9436 10.6342 28.1962 10.8141 28.4029 11.0513C28.6172 11.2886 28.7779 11.5757 28.8851 11.9125C28.9999 12.2493 29.0573 12.6282 29.0573 13.0492C29.0573 13.1717 29.0229 13.2635 28.954 13.3247C28.8851 13.3783 28.7856 13.4051 28.6555 13.4051H24.6598V12.7966H28.4373L28.2536 12.9458C28.2536 12.5325 28.1924 12.1842 28.0699 11.901C27.9474 11.6101 27.7675 11.3881 27.5302 11.2351C27.3006 11.082 27.0097 11.0054 26.6576 11.0054C26.2672 11.0054 25.9343 11.0973 25.6587 11.281C25.3908 11.457 25.188 11.7058 25.0502 12.0273C24.9124 12.3411 24.8435 12.7086 24.8435 13.1296V13.1984C24.8435 13.9027 25.0119 14.4385 25.3487 14.8059C25.6932 15.1733 26.1792 15.357 26.8069 15.357C27.0671 15.357 27.3236 15.3226 27.5762 15.2537C27.8364 15.1848 28.089 15.07 28.334 14.9092C28.4411 14.8403 28.5368 14.8097 28.621 14.8174C28.7129 14.8174 28.7856 14.8442 28.8392 14.8977C28.8927 14.9437 28.9272 15.0049 28.9425 15.0815C28.9655 15.1503 28.9578 15.2269 28.9195 15.3111C28.8889 15.3953 28.8239 15.468 28.7243 15.5292C28.4717 15.713 28.1732 15.8546 27.8288 15.9541C27.4843 16.0536 27.1437 16.1033 26.8069 16.1033ZM30.874 16.0804C30.721 16.0804 30.6023 16.0383 30.5181 15.9541C30.4416 15.8699 30.4033 15.7512 30.4033 15.5981V10.8102C30.4033 10.6571 30.4416 10.5423 30.5181 10.4658C30.5947 10.3816 30.7056 10.3395 30.8511 10.3395C30.9965 10.3395 31.1075 10.3816 31.1841 10.4658C31.2683 10.5423 31.3104 10.6571 31.3104 10.8102V11.7403H31.1955C31.318 11.2886 31.5515 10.9404 31.8959 10.6954C32.2404 10.4505 32.6652 10.3203 33.1704 10.305C33.2852 10.2974 33.3771 10.3242 33.446 10.3854C33.5149 10.439 33.5531 10.5347 33.5608 10.6724C33.5684 10.8026 33.5378 10.9059 33.4689 10.9825C33.4 11.059 33.2929 11.1049 33.1474 11.1202L32.9637 11.1432C32.4432 11.1891 32.0414 11.3575 31.7581 11.6484C31.4826 11.9316 31.3448 12.322 31.3448 12.8195V15.5981C31.3448 15.7512 31.3027 15.8699 31.2185 15.9541C31.142 16.0383 31.0271 16.0804 30.874 16.0804ZM36.9656 16.1033C36.3762 16.1033 35.8672 15.9885 35.4385 15.7589C35.0175 15.5216 34.6884 15.1886 34.4511 14.76C34.2214 14.3313 34.1066 13.8185 34.1066 13.2214C34.1066 12.6397 34.2214 12.1345 34.4511 11.7058C34.6807 11.2695 34.9945 10.9289 35.3926 10.6839C35.7983 10.439 36.2652 10.3165 36.7934 10.3165C37.1684 10.3165 37.5052 10.3816 37.8038 10.5117C38.1023 10.6342 38.3549 10.8141 38.5616 11.0513C38.7759 11.2886 38.9366 11.5757 39.0438 11.9125C39.1586 12.2493 39.216 12.6282 39.216 13.0492C39.216 13.1717 39.1816 13.2635 39.1127 13.3247C39.0438 13.3783 38.9443 13.4051 38.8142 13.4051H34.8185V12.7966H38.596L38.4123 12.9458C38.4123 12.5325 38.3511 12.1842 38.2286 11.901C38.1061 11.6101 37.9262 11.3881 37.6889 11.2351C37.4593 11.082 37.1684 11.0054 36.8163 11.0054C36.4259 11.0054 36.093 11.0973 35.8174 11.281C35.5495 11.457 35.3467 11.7058 35.2089 12.0273C35.0711 12.3411 35.0022 12.7086 35.0022 13.1296V13.1984C35.0022 13.9027 35.1706 14.4385 35.5074 14.8059C35.8519 15.1733 36.3379 15.357 36.9656 15.357C37.2258 15.357 37.4823 15.3226 37.7349 15.2537C37.9951 15.1848 38.2477 15.07 38.4927 14.9092C38.5998 14.8403 38.6955 14.8097 38.7797 14.8174C38.8716 14.8174 38.9443 14.8442 38.9979 14.8977C39.0514 14.9437 39.0859 15.0049 39.1012 15.0815C39.1242 15.1503 39.1165 15.2269 39.0782 15.3111C39.0476 15.3953 38.9826 15.468 38.883 15.5292C38.6304 15.713 38.3319 15.8546 37.9875 15.9541C37.643 16.0536 37.3024 16.1033 36.9656 16.1033ZM42.6861 16.1033C42.1886 16.1033 41.7523 15.9847 41.3772 15.7474C41.0098 15.5101 40.7227 15.1771 40.5161 14.7485C40.317 14.3122 40.2175 13.7993 40.2175 13.2099C40.2175 12.6129 40.317 12.1 40.5161 11.6714C40.7227 11.2351 41.0098 10.9021 41.3772 10.6724C41.7523 10.4352 42.1886 10.3165 42.6861 10.3165C43.1913 10.3165 43.6238 10.4428 43.9836 10.6954C44.3433 10.948 44.5845 11.2886 44.7069 11.7173H44.5806V8.29571C44.5806 8.14262 44.6189 8.0278 44.6954 7.95126C44.7796 7.86706 44.8983 7.82496 45.0514 7.82496C45.1968 7.82496 45.3078 7.86706 45.3843 7.95126C45.4685 8.0278 45.5106 8.14262 45.5106 8.29571V15.5981C45.5106 15.7512 45.4724 15.8699 45.3958 15.9541C45.3193 16.0383 45.2045 16.0804 45.0514 16.0804C44.9059 16.0804 44.7911 16.0383 44.7069 15.9541C44.6304 15.8699 44.5921 15.7512 44.5921 15.5981V14.5074L44.7184 14.6681C44.5959 15.1044 44.351 15.4527 43.9836 15.713C43.6238 15.9732 43.1913 16.1033 42.6861 16.1033ZM42.8813 15.357C43.2258 15.357 43.5281 15.2728 43.7884 15.1044C44.0486 14.936 44.2477 14.6911 44.3854 14.3696C44.5309 14.0481 44.6036 13.6615 44.6036 13.2099C44.6036 12.5134 44.4467 11.9814 44.1328 11.614C43.8267 11.2465 43.4095 11.0628 42.8813 11.0628C42.5292 11.0628 42.223 11.147 41.9628 11.3154C41.7102 11.4762 41.5112 11.7173 41.3657 12.0388C41.2279 12.3526 41.159 12.743 41.159 13.2099C41.159 13.8988 41.316 14.4308 41.6298 14.8059C41.9436 15.1733 42.3608 15.357 42.8813 15.357ZM50.8591 16C50.6907 16 50.5606 15.9579 50.4687 15.8737C50.3845 15.7818 50.3424 15.6517 50.3424 15.4833V8.42201C50.3424 8.25361 50.3845 8.12731 50.4687 8.04311C50.5606 7.95126 50.6907 7.90533 50.8591 7.90533H53.5803C54.1391 7.90533 54.6098 7.98953 54.9926 8.15793C55.3829 8.31868 55.6815 8.55597 55.8881 8.8698C56.0948 9.18364 56.1981 9.56637 56.1981 10.018C56.1981 10.5232 56.0489 10.9442 55.7503 11.281C55.4595 11.6178 55.0614 11.8398 54.5562 11.9469V11.7862C55.1303 11.8551 55.5781 12.0617 55.8996 12.4062C56.2288 12.7507 56.3933 13.2061 56.3933 13.7725C56.3933 14.4921 56.1599 15.0432 55.6929 15.4259C55.226 15.8086 54.5677 16 53.7181 16H50.8591ZM51.261 15.2422H53.6262C54.2386 15.2422 54.6979 15.1197 55.004 14.8748C55.3102 14.6298 55.4633 14.2586 55.4633 13.761C55.4633 13.2559 55.3102 12.8846 55.004 12.6473C54.6979 12.4024 54.2386 12.2799 53.6262 12.2799H51.261V15.2422ZM51.261 11.5221H53.4425C54.0396 11.5221 54.4912 11.3996 54.7974 11.1547C55.1112 10.9097 55.2681 10.5576 55.2681 10.0984C55.2681 9.62377 55.1112 9.26784 54.7974 9.03055C54.4912 8.7856 54.0396 8.66313 53.4425 8.66313H51.261V11.5221ZM59.2153 18.1471C59.1005 18.1471 59.0087 18.1165 58.9398 18.0552C58.8709 17.994 58.8288 17.9098 58.8135 17.8026C58.8058 17.7031 58.825 17.5998 58.8709 17.4926L59.6631 15.713V16.1148L57.4586 10.9939C57.4127 10.8791 57.3974 10.772 57.4127 10.6724C57.428 10.5729 57.4739 10.4926 57.5505 10.4313C57.627 10.3701 57.7342 10.3395 57.872 10.3395C57.9944 10.3395 58.0901 10.3663 58.159 10.4198C58.2279 10.4734 58.2891 10.5691 58.3427 10.7069L60.2257 15.3226H59.9157L61.8217 10.7069C61.8829 10.5691 61.948 10.4734 62.0169 10.4198C62.0858 10.3663 62.1853 10.3395 62.3154 10.3395C62.4379 10.3395 62.5298 10.3701 62.591 10.4313C62.6599 10.4926 62.6982 10.5729 62.7058 10.6724C62.7211 10.7643 62.7058 10.8676 62.6599 10.9825L59.7205 17.7797C59.6593 17.9175 59.5904 18.0131 59.5139 18.0667C59.445 18.1203 59.3455 18.1471 59.2153 18.1471Z" fill="#B3AFA6"/>
<path d="M139.784 1.85236V1.35439H143.261V1.85236H141.803V5.98999H141.242V1.85236H139.784ZM144.127 1.35439H144.797L146.373 5.2023H146.427L148.003 1.35439H148.672V5.98999H148.147V2.46802H148.102L146.653 5.98999H146.146L144.698 2.46802H144.653V5.98999H144.127V1.35439Z" fill="white"/>
<path d="M77.7922 6.86631C77.0233 6.74251 76.7298 6.44849 75.4296 6.44849C74.7866 6.44849 73.9618 6.68061 73.3886 7.19128C72.8574 7.65553 72.4799 8.38285 72.4799 9.12564C72.4799 9.72916 72.6197 10.4565 72.9412 10.9207C73.5843 11.8802 74.7446 12.4218 75.3458 12.8706C75.9888 13.3658 76.6179 13.9848 76.6179 14.8514C76.6179 15.6251 76.0168 16.1358 75.164 16.1358C74.2274 16.1358 73.2628 15.2846 72.9832 13.8764C72.7455 13.7836 72.5079 13.861 72.2842 13.9229C72.2842 15.0835 72.396 15.9036 72.5498 16.4762C73.3466 16.4762 73.3746 16.7857 75.3178 16.7857C76.1706 16.7857 76.8416 16.5226 77.4288 15.9501C77.9181 15.4549 78.3794 14.743 78.3794 13.7836C78.3794 12.9789 78.0579 12.4373 77.6524 11.9266C77.1072 11.2612 76.3244 10.7815 75.7791 10.472C75.2199 10.1625 74.2274 9.35777 74.2274 8.4757C74.2274 7.6091 74.6887 7.08296 75.4157 7.08296C76.604 7.08296 76.9954 8.27452 77.247 9.29587C77.4427 9.35777 77.7922 9.35777 77.946 9.21849C77.946 8.39832 77.8901 7.76385 77.7922 6.86631Z" fill="white"/>
<path d="M90.3262 16.7857C91.6822 16.7857 92.9264 16.0739 93.8771 14.6966C93.8072 14.5573 93.5695 14.3716 93.4157 14.3716C92.4232 15.5787 91.2908 15.981 90.3122 15.981C88.6905 15.981 87.4044 13.8764 87.4044 11.4624C87.4044 9.06374 88.5228 7.08296 90.1864 7.08296C92.1156 7.08296 92.7447 8.29 93.1082 9.62084C93.2759 9.68274 93.5416 9.63631 93.7093 9.54346C93.6394 8.73877 93.5276 7.99598 93.4018 7.14486C92.6888 7.06748 92.0597 6.44849 90.3402 6.44849C87.6001 6.44849 85.2934 8.3519 85.2934 11.7564C85.2934 13.211 85.8526 14.9287 86.985 15.8108C87.8797 16.5226 88.9701 16.7857 90.3262 16.7857Z" fill="white"/>
<path d="M103.645 8.55307C103.645 7.26866 103.855 7.19128 104.931 7.14486C105.015 7.05201 105.015 6.71156 104.931 6.61871C104.246 6.63419 103.31 6.64966 102.653 6.64966C102.009 6.64966 101.31 6.63419 100.611 6.61871C100.528 6.71156 100.528 7.05201 100.611 7.14486C101.45 7.19128 101.688 7.26866 101.688 8.55307V12.9789C101.688 14.48 102.107 15.5787 102.904 16.1358C103.771 16.7702 105.057 16.7857 105.728 16.7857C108.594 16.7857 109.503 14.8204 109.503 12.0659V8.55307C109.503 7.26866 109.754 7.23771 110.579 7.14486C110.663 7.05201 110.663 6.71156 110.579 6.61871C110.034 6.63419 109.461 6.64966 109.083 6.64966C108.664 6.64966 107.937 6.63419 107.308 6.61871C107.224 6.71156 107.224 7.05201 107.308 7.14486C108.356 7.25318 108.594 7.26866 108.594 8.55307V12.3444C108.594 14.0776 108.384 16.1358 106.022 16.1358C105.351 16.1358 104.777 15.8108 104.358 15.362C103.673 14.6347 103.645 13.4741 103.645 12.4682V8.55307Z" fill="white"/>
<path d="M119.919 7.93408C119.919 7.4853 119.989 7.26866 120.897 7.26866C121.541 7.26866 122.323 7.5472 122.323 9.06374C122.323 10.3017 121.694 10.8124 120.702 10.8124H119.919V7.93408ZM119.919 11.4624H120.911C122.351 11.4624 122.98 12.4063 122.98 13.7372C122.98 14.6657 122.687 16.012 120.842 16.012C120.003 16.012 119.919 15.7798 119.919 15.3311V11.4624ZM118.954 6.64966C118.395 6.64966 116.801 6.61871 116.801 6.61871C116.662 6.71156 116.662 7.05201 116.801 7.14486C117.57 7.19128 117.962 7.25318 117.962 8.5376V14.743C117.962 16.0274 117.57 16.0893 116.801 16.1358C116.662 16.2286 116.662 16.5691 116.801 16.6619C116.801 16.6619 118.395 16.631 118.954 16.631C119.513 16.631 120.408 16.6619 121.247 16.6619C124.113 16.6619 125.035 15.3311 125.035 13.7526C125.035 12.3908 124.42 11.5088 122.939 11.0755V11.0445C123.693 10.6731 124.281 9.82201 124.281 9.03279C124.281 7.96503 123.749 6.61871 120.939 6.61871C120.24 6.61871 119.388 6.64966 118.954 6.64966Z" fill="white"/>
<path d="M136.023 10.9826H134.891V8.05788C134.891 7.68648 135.128 7.29961 135.464 7.29961H136.652C137.701 7.29961 137.994 7.88765 138.302 8.95542C138.47 8.98637 138.763 8.95542 138.903 8.87804C138.833 8.24357 138.763 6.75798 138.735 6.63419C138.735 6.60324 138.721 6.58776 138.679 6.58776C138.442 6.63419 138.33 6.64966 137.994 6.64966H133.87C133.87 6.64966 132.416 6.63419 131.717 6.61871C131.633 6.71156 131.633 7.05201 131.717 7.14486C132.696 7.19128 132.934 7.26866 132.934 8.55307V14.743C132.934 16.0274 132.696 16.0893 131.717 16.1358C131.633 16.2286 131.633 16.5691 131.717 16.6619C132.402 16.6464 133.884 16.631 133.884 16.631H137.169C137.841 16.631 139.099 16.6619 139.099 16.6619C139.294 15.8882 139.364 14.8668 139.476 14.0776C139.322 14.0002 139.029 13.9538 138.847 14.0002C138.567 15.1144 137.938 15.981 136.876 15.981H135.464C135.156 15.981 134.891 15.656 134.891 15.2382V11.6945H136.023C136.988 11.6945 137.253 11.9885 137.295 12.6849C137.379 12.7777 137.813 12.7777 137.896 12.6849C137.882 12.1432 137.868 11.8647 137.868 11.3231C137.868 10.8124 137.882 10.4565 137.896 9.99224C137.813 9.89939 137.379 9.89939 137.295 9.99224C137.253 10.8434 136.96 10.9826 136.023 10.9826Z" fill="white"/>
</svg>
