<svg width="44" height="44" viewBox="0 0 44 44" fill="none" xmlns="http://www.w3.org/2000/svg">
<circle cx="22" cy="22" r="22" fill="#98144D"/>
<path d="M29 22.9492C29 20.9992 28.3208 19.3451 26.9625 17.9867C25.6042 16.6284 23.95 15.9492 22 15.9492V13.9492C23.25 13.9492 24.4208 14.1867 25.5125 14.6617C26.6042 15.1367 27.5542 15.7784 28.3625 16.5867C29.1708 17.3951 29.8125 18.3451 30.2875 19.4367C30.7625 20.5284 31 21.6992 31 22.9492H29ZM25 22.9492C25 22.1159 24.7083 21.4076 24.125 20.8242C23.5417 20.2409 22.8333 19.9492 22 19.9492V17.9492C23.3833 17.9492 24.5625 18.4367 25.5375 19.4117C26.5125 20.3867 27 21.5659 27 22.9492H25ZM29.95 31.9992C27.8667 31.9992 25.8083 31.5451 23.775 30.6367C21.7417 29.7284 19.8917 28.4409 18.225 26.7742C16.5583 25.1076 15.2708 23.2576 14.3625 21.2242C13.4542 19.1909 13 17.1326 13 15.0492C13 14.7492 13.1 14.4992 13.3 14.2992C13.5 14.0992 13.75 13.9992 14.05 13.9992H18.1C18.3333 13.9992 18.5417 14.0784 18.725 14.2367C18.9083 14.3951 19.0167 14.5826 19.05 14.7992L19.7 18.2992C19.7333 18.5659 19.725 18.7909 19.675 18.9742C19.625 19.1576 19.5333 19.3159 19.4 19.4492L16.975 21.8992C17.3083 22.5159 17.7042 23.1117 18.1625 23.6867C18.6208 24.2617 19.125 24.8159 19.675 25.3492C20.1917 25.8659 20.7333 26.3451 21.3 26.7867C21.8667 27.2284 22.4667 27.6326 23.1 27.9992L25.45 25.6492C25.6 25.4992 25.7958 25.3867 26.0375 25.3117C26.2792 25.2367 26.5167 25.2159 26.75 25.2492L30.2 25.9492C30.4333 26.0159 30.625 26.1367 30.775 26.3117C30.925 26.4867 31 26.6826 31 26.8992V30.9492C31 31.2492 30.9 31.4992 30.7 31.6992C30.5 31.8992 30.25 31.9992 29.95 31.9992Z" fill="white"/>
</svg>
