<svg width="17" height="16" viewBox="0 0 17 16" fill="none" xmlns="http://www.w3.org/2000/svg">
<path d="M3.16536 13.3337C2.7987 13.3337 2.48481 13.2031 2.2237 12.942C1.96259 12.6809 1.83203 12.367 1.83203 12.0003V4.00033C1.83203 3.63366 1.96259 3.31977 2.2237 3.05866C2.48481 2.79755 2.7987 2.66699 3.16536 2.66699H13.832C14.1987 2.66699 14.5126 2.79755 14.7737 3.05866C15.0348 3.31977 15.1654 3.63366 15.1654 4.00033V12.0003C15.1654 12.367 15.0348 12.6809 14.7737 12.942C14.5126 13.2031 14.1987 13.3337 13.832 13.3337H3.16536ZM8.4987 8.66699L13.832 5.33366V4.00033L8.4987 7.33366L3.16536 4.00033V5.33366L8.4987 8.66699Z" fill="#98144D"/>
</svg>
