<svg width="44" height="44" viewBox="0 0 44 44" fill="none" xmlns="http://www.w3.org/2000/svg">
<circle cx="22" cy="22" r="22" fill="#98144D"/>
<path d="M21.9028 16.9805C21.3095 16.9805 20.7295 17.1564 20.2361 17.4861C19.7428 17.8157 19.3583 18.2842 19.1312 18.8324C18.9041 19.3806 18.8447 19.9838 18.9605 20.5657C19.0762 21.1477 19.362 21.6822 19.7815 22.1018C20.2011 22.5213 20.7356 22.8071 21.3176 22.9228C21.8995 23.0386 22.5027 22.9792 23.0509 22.7521C23.5991 22.525 24.0676 22.1405 24.3972 21.6472C24.7269 21.1538 24.9028 20.5738 24.9028 19.9805C24.9019 19.1851 24.5856 18.4226 24.0232 17.8601C23.4607 17.2977 22.6982 16.9814 21.9028 16.9805ZM21.9028 21.4805C21.6062 21.4805 21.3162 21.3925 21.0695 21.2277C20.8228 21.0629 20.6305 20.8286 20.517 20.5545C20.4035 20.2804 20.3738 19.9788 20.4317 19.6878C20.4895 19.3969 20.6324 19.1296 20.8422 18.9198C21.052 18.71 21.3192 18.5672 21.6102 18.5093C21.9012 18.4514 22.2028 18.4811 22.4769 18.5946C22.7509 18.7082 22.9852 18.9004 23.15 19.1471C23.3149 19.3938 23.4028 19.6838 23.4028 19.9805C23.4024 20.3782 23.2442 20.7594 22.963 21.0406C22.6818 21.3218 22.3005 21.48 21.9028 21.4805Z" fill="white"/>
<path d="M27.6676 14.2113C26.2423 12.7864 24.3396 11.9399 22.3269 11.8352C20.3141 11.7306 18.3339 12.3752 16.7685 13.6447C15.2031 14.9142 14.1634 16.7186 13.8501 18.7096C13.5368 20.7006 13.9721 22.737 15.072 24.4259L20.7395 33.1265C20.8657 33.3201 21.0381 33.4792 21.2412 33.5893C21.4444 33.6994 21.6718 33.7571 21.9029 33.7571C22.1339 33.7571 22.3613 33.6994 22.5645 33.5893C22.7676 33.4792 22.9401 33.3201 23.0662 33.1265L28.7339 24.4259C29.7545 22.8592 30.2055 20.9893 30.0114 19.1296C29.8172 17.2699 28.9898 15.5335 27.6676 14.2113ZM27.4771 23.6071L21.9029 32.1642L16.3286 23.6071C14.6224 20.9878 14.9884 17.4825 17.1988 15.272C17.8165 14.6542 18.5499 14.1642 19.357 13.8298C20.1642 13.4955 21.0292 13.3234 21.9029 13.3234C22.7765 13.3234 23.6416 13.4955 24.4487 13.8298C25.2559 14.1642 25.9892 14.6542 26.607 15.272C28.8174 17.4825 29.1833 20.9878 27.4771 23.6071Z" fill="white"/>
</svg>
