 <svg xmlns="http://www.w3.org/2000/svg" xmlns:xlink="http://www.w3.org/1999/xlink" viewBox="0 0 165.77 125.46"><defs><style>.a{fill:url(#a);}.b{fill:url(#b);}.c{fill:url(#c);}.d{fill:url(#d);}.e{fill:url(#e);}.f{fill:url(#f);}.g{fill:url(#g);}.h{fill:url(#h);}.i{fill:url(#i);}.j{fill:url(#j);}.k{fill:url(#k);}.l{fill:url(#l);}.m{fill:url(#m);}.n{fill:url(#n);}.o{fill:url(#o);}.p{fill:url(#p);}.q{fill:url(#q);}.r{fill:url(#r);}.s{fill:url(#s);}.t{fill:url(#t);}.u{fill:url(#u);}.aa,.ab,.ac,.ad,.ae,.af,.ag,.ah,.ai,.aj,.ak,.al,.am,.an,.ao,.ap,.aq,.au,.av,.aw,.ax,.ay,.az,.ba,.bb,.bc,.bd,.be,.bf,.bg,.bh,.bi,.bj,.bk,.bl,.bm,.bn,.bo,.bp,.bq,.cl,.cm,.cn,.co,.cp,.cq,.cr,.cs,.ct,.cu,.cv,.cw,.cy,.cz,.da,.db,.dc,.dd,.de,.df,.dg,.dh,.di,.dj,.dk,.dl,.dm,.dn,.do,.dp,.dq,.dr,.ds,.dt,.du,.dv,.dw,.dx,.dy,.dz,.ea,.eb,.ec,.ed,.ee,.ef,.eg,.eh,.el,.em,.en,.eo,.ep,.eq,.eu,.ev,.ew,.ex,.ey,.ez,.fb,.fc,.fe,.ff,.fg,.fh,.fi,.fm,.fn,.fo,.fp,.fq,.fr,.fv,.fw,.fx,.fy,.fz,.ga,.gc,.gd,.gg,.v,.w,.x,.y,.z{fill:none;stroke-miterlimit:10;}.af,.ag,.ah,.aj,.ak,.an,.ao,.ap,.aq,.ax,.ay,.az,.ba,.bb,.be,.bf,.bn,.bq,.cn,.co,.cp,.cq,.cu,.cv,.cw,.cz,.da,.db,.dd,.de,.dg,.dr,.ds,.eo,.ep,.eq,.ex,.ey,.ez,.fe,.fp,.fq,.fr,.fy,.fz,.ga,.gc,.gg,.v,.w,.x{stroke-width:0.32px;}.v{stroke:url(#v);}.w{stroke:url(#w);}.x{stroke:url(#x);}.aa,.ab,.bo,.bp,.cl,.cm,.cy,.fb,.y,.z{stroke-width:0.29px;}.y{stroke:url(#y);}.z{stroke:url(#z);}.aa{stroke:url(#aa);}.ab{stroke:url(#ab);}.ac,.ad,.ae,.ai,.bc,.bd,.bg,.bh,.bj,.bk,.bm,.cr,.cs,.ct,.dc,.df,.dk,.dl,.dm,.dn,.do,.dq,.dw,.dx,.dy,.dz,.ea,.eb,.ec,.ef,.eg,.fg,.fh,.fi,.gd{stroke-width:0.49px;}.ac{stroke:url(#ac);}.ad{stroke:url(#ad);}.ae{stroke:url(#ae);}.af{stroke:url(#af);}.ag{stroke:url(#ag);}.ah{stroke:url(#ah);}.ai{stroke:url(#ai);}.aj{stroke:url(#aj);}.ak{stroke:url(#ak);}.al{stroke:#000;}.al,.am,.bi,.dh,.di,.du,.eh{stroke-width:0.97px;}.am{stroke:url(#al);}.an{stroke:url(#am);}.ao{stroke:url(#an);}.ap{stroke:url(#ao);}.aq{stroke:url(#ap);}.ar{fill:url(#aq);}.as{fill:url(#ar);}.at{fill:url(#as);}.au,.av,.aw,.el,.em,.en,.eu,.ev,.ew,.fm,.fn,.fo,.fv,.fw,.fx{stroke-width:0.19px;}.au{stroke:url(#at);}.av{stroke:url(#au);}.aw{stroke:url(#av);}.ax{stroke:url(#aw);}.ay{stroke:url(#ax);}.az{stroke:url(#ay);}.ba{stroke:url(#az);}.bb{stroke:url(#ba);}.bc{stroke:url(#bb);}.bd{stroke:url(#bc);}.be{stroke:url(#bd);}.bf{stroke:url(#be);}.bg{stroke:url(#bf);}.bh{stroke:url(#bg);}.bi{stroke:url(#bh);}.bj{stroke:url(#bi);}.bk{stroke:url(#bj);}.bl,.dj,.dp,.dt,.dv,.ed,.ee,.fc,.ff{stroke-width:0.68px;}.bl{stroke:url(#bk);}.bm{stroke:url(#bl);}.bn{stroke:url(#bm);}.bo{stroke:url(#bn);}.bp{stroke:url(#bo);}.bq{stroke:url(#bp);}.br{fill:url(#bq);}.bs{fill:url(#br);}.bt{fill:url(#bs);}.bu{fill:url(#bt);}.bv{fill:url(#bu);}.bw{fill:url(#bv);}.bx{fill:url(#bw);}.by{fill:url(#bx);}.bz{fill:url(#by);}.ca{fill:url(#bz);}.cb{fill:url(#ca);}.cc{fill:url(#cb);}.cd{fill:url(#cc);}.ce{fill:url(#cd);}.cf{fill:url(#ce);}.cg{fill:url(#cf);}.ch{fill:url(#cg);}.ci{fill:url(#ch);}.cj{fill:url(#ci);}.ck{fill:url(#cj);}.cl{stroke:url(#ck);}.cm{stroke:url(#cl);}.cn{stroke:url(#cm);}.co{stroke:url(#cn);}.cp{stroke:url(#co);}.cq{stroke:url(#cp);}.cr{stroke:url(#cq);}.cs{stroke:url(#cr);}.ct{stroke:url(#cs);}.cu{stroke:url(#ct);}.cv{stroke:url(#cu);}.cw{stroke:url(#cv);}.cx{fill:url(#cw);}.cy{stroke:url(#cx);}.cz{stroke:url(#cy);}.da{stroke:url(#cz);}.db{stroke:url(#da);}.dc{stroke:url(#db);}.dd{stroke:url(#dc);}.de{stroke:url(#dd);}.df{stroke:url(#de);}.dg{stroke:url(#df);}.dh{stroke:url(#dg);}.di{stroke:url(#dh);}.dj{stroke:url(#di);}.dk{stroke:url(#dj);}.dl{stroke:url(#dk);}.dm{stroke:url(#dl);}.dn{stroke:url(#dm);}.do{stroke:url(#dn);}.dp{stroke:url(#do);}.dq{stroke:url(#dp);}.dr{stroke:url(#dq);}.ds{stroke:url(#dr);}.dt{stroke:url(#ds);}.du{stroke:url(#dt);}.dv{stroke:url(#du);}.dw{stroke:url(#dv);}.dx{stroke:url(#dw);}.dy{stroke:url(#dx);}.dz{stroke:url(#dy);}.ea{stroke:url(#dz);}.eb{stroke:url(#ea);}.ec{stroke:url(#eb);}.ed{stroke:url(#ec);}.ee{stroke:url(#ed);}.ef{stroke:url(#ee);}.eg{stroke:url(#ef);}.eh{stroke:url(#eg);}.ei{fill:url(#eh);}.ej{fill:url(#ei);}.ek{fill:url(#ej);}.el{stroke:url(#ek);}.em{stroke:url(#el);}.en{stroke:url(#em);}.eo{stroke:url(#en);}.ep{stroke:url(#eo);}.eq{stroke:url(#ep);}.er{fill:url(#eq);}.es{fill:url(#er);}.et{fill:url(#es);}.eu{stroke:url(#et);}.ev{stroke:url(#eu);}.ew{stroke:url(#ev);}.ex{stroke:url(#ew);}.ey{stroke:url(#ex);}.ez{stroke:url(#ey);}.fa{fill:url(#ez);}.fb{stroke:url(#fa);}.fc{stroke:url(#fb);}.fd{fill:url(#fc);}.fe{stroke:url(#fd);}.ff{stroke:url(#fe);}.fg{stroke:url(#ff);}.fh{stroke:url(#fg);}.fi{stroke:url(#fh);}.fj{fill:url(#fi);}.fk{fill:url(#fj);}.fl{fill:url(#fk);}.fm{stroke:url(#fl);}.fn{stroke:url(#fm);}.fo{stroke:url(#fn);}.fp{stroke:url(#fo);}.fq{stroke:url(#fp);}.fr{stroke:url(#fq);}.fs{fill:url(#fr);}.ft{fill:url(#fs);}.fu{fill:url(#ft);}.fv{stroke:url(#fu);}.fw{stroke:url(#fv);}.fx{stroke:url(#fw);}.fy{stroke:url(#fx);}.fz{stroke:url(#fy);}.ga{stroke:url(#fz);}.gb{fill:url(#ga);}.gc{stroke:url(#gb);}.gd{stroke:url(#gc);}.ge{fill:url(#gd);}.gf{fill:url(#ge);}.gg{stroke:url(#gf);}</style><linearGradient id="a" x1="76.79" y1="124.24" x2="79.29" y2="124.24" gradientUnits="userSpaceOnUse"><stop offset="0"/><stop offset="1"/></linearGradient><linearGradient id="b" x1="80.7" y1="124.24" x2="83.2" y2="124.24" xlink:href="#a"/><linearGradient id="c" x1="84.52" y1="124.24" x2="87.01" y2="124.24" xlink:href="#a"/><linearGradient id="d" x1="81.75" y1="3.79" x2="82.27" y2="3.79" xlink:href="#a"/><linearGradient id="e" x1="81.95" y1="0.79" x2="82.47" y2="0.79" xlink:href="#a"/><linearGradient id="f" x1="79.17" y1="6.35" x2="79.69" y2="6.35" xlink:href="#a"/><linearGradient id="g" x1="79.36" y1="3.37" x2="79.88" y2="3.37" xlink:href="#a"/><linearGradient id="h" x1="88.73" y1="10.94" x2="90.03" y2="10.94" xlink:href="#a"/><linearGradient id="i" x1="89.14" y1="13.45" x2="90.44" y2="13.45" xlink:href="#a"/><linearGradient id="j" x1="83.83" y1="18.49" x2="85.13" y2="18.49" xlink:href="#a"/><linearGradient id="k" x1="89.14" y1="16.54" x2="90.44" y2="16.54" xlink:href="#a"/><linearGradient id="l" x1="84.06" y1="21.47" x2="85.36" y2="21.47" xlink:href="#a"/><linearGradient id="m" x1="83.8" y1="15.9" x2="85.1" y2="15.9" xlink:href="#a"/><linearGradient id="n" x1="103.74" y1="12.86" x2="105.82" y2="12.86" xlink:href="#a"/><linearGradient id="o" x1="96.32" y1="10.23" x2="98.4" y2="10.23" xlink:href="#a"/><linearGradient id="p" x1="58.94" y1="19.04" x2="61.02" y2="19.04" xlink:href="#a"/><linearGradient id="q" x1="65.41" y1="15.45" x2="67.48" y2="15.45" xlink:href="#a"/><linearGradient id="r" x1="80.93" y1="48.05" x2="83" y2="48.05" xlink:href="#a"/><linearGradient id="s" x1="71.56" y1="35.07" x2="73.64" y2="35.07" xlink:href="#a"/><linearGradient id="t" x1="77.83" y1="36.67" x2="79.91" y2="36.67" xlink:href="#a"/><linearGradient id="u" x1="77.9" y1="32.01" x2="79.98" y2="32.01" xlink:href="#a"/><linearGradient id="v" x1="97.35" y1="18.56" x2="100.44" y2="18.56" xlink:href="#a"/><linearGradient id="w" x1="59.21" y1="9.76" x2="62.3" y2="9.76" xlink:href="#a"/><linearGradient id="x" x1="64.32" y1="24.75" x2="67.41" y2="24.75" xlink:href="#a"/><linearGradient id="y" x1="90.11" y1="26.72" x2="92.6" y2="26.72" xlink:href="#a"/><linearGradient id="z" x1="83.29" y1="33.44" x2="85.79" y2="33.44" xlink:href="#a"/><linearGradient id="aa" x1="90.03" y1="35.21" x2="92.53" y2="35.21" xlink:href="#a"/><linearGradient id="ab" x1="83.22" y1="41.83" x2="85.71" y2="41.83" xlink:href="#a"/><linearGradient id="ac" x1="85.14" y1="2.53" x2="90.21" y2="2.53" xlink:href="#a"/><linearGradient id="ad" x1="91.46" y1="15.03" x2="96.53" y2="15.03" xlink:href="#a"/><linearGradient id="ae" x1="67.37" y1="19.48" x2="72.44" y2="19.48" xlink:href="#a"/><linearGradient id="af" x1="101.5" y1="4.55" x2="104.59" y2="4.55" xlink:href="#a"/><linearGradient id="ag" x1="71.64" y1="30.99" x2="74.73" y2="30.99" xlink:href="#a"/><linearGradient id="ah" x1="76.94" y1="40.77" x2="80.03" y2="40.77" xlink:href="#a"/><linearGradient id="ai" x1="70.75" y1="5.37" x2="75.82" y2="5.37" xlink:href="#a"/><linearGradient id="aj" x1="79.4" y1="5.07" x2="82.07" y2="5.07" xlink:href="#a"/><linearGradient id="ak" x1="79.61" y1="2.08" x2="82.27" y2="2.08" xlink:href="#a"/><linearGradient id="al" x1="82.83" y1="35.89" x2="95.06" y2="35.89" xlink:href="#a"/><linearGradient id="am" x1="85.02" y1="19.04" x2="89.49" y2="19.04" xlink:href="#a"/><linearGradient id="an" x1="84.74" y1="13.45" x2="89.13" y2="13.45" xlink:href="#a"/><linearGradient id="ao" x1="84.86" y1="15.98" x2="89.45" y2="15.98" xlink:href="#a"/><linearGradient id="ap" x1="85.24" y1="30.08" x2="90.74" y2="30.08" xlink:href="#a"/><linearGradient id="aq" x1="96.09" y1="35.02" x2="97.23" y2="35.02" xlink:href="#a"/><linearGradient id="ar" x1="97.46" y1="30.71" x2="98.61" y2="30.71" xlink:href="#a"/><linearGradient id="as" x1="98.96" y1="26.39" x2="100.1" y2="26.39" xlink:href="#a"/><linearGradient id="at" x1="106.27" y1="19.1" x2="107.61" y2="19.1" xlink:href="#a"/><linearGradient id="au" x1="104.81" y1="23.4" x2="106.15" y2="23.4" xlink:href="#a"/><linearGradient id="av" x1="103.27" y1="27.88" x2="104.61" y2="27.88" xlink:href="#a"/><linearGradient id="aw" x1="99.79" y1="22.76" x2="106.68" y2="22.76" xlink:href="#a"/><linearGradient id="ax" x1="98.31" y1="27.06" x2="105.19" y2="27.06" xlink:href="#a"/><linearGradient id="ay" x1="96.73" y1="31.56" x2="103.61" y2="31.56" xlink:href="#a"/><linearGradient id="az" x1="98.78" y1="10.23" x2="103.48" y2="10.23" xlink:href="#a"/><linearGradient id="ba" x1="98.56" y1="13.12" x2="103.26" y2="13.12" xlink:href="#a"/><linearGradient id="bb" x1="97.75" y1="7.66" x2="102.34" y2="7.66" xlink:href="#a"/><linearGradient id="bc" x1="99.7" y1="15.61" x2="104.29" y2="15.61" xlink:href="#a"/><linearGradient id="bd" x1="61.28" y1="16.41" x2="65.98" y2="16.41" xlink:href="#a"/><linearGradient id="be" x1="61.5" y1="19.31" x2="66.2" y2="19.31" xlink:href="#a"/><linearGradient id="bf" x1="61.47" y1="12.87" x2="66.06" y2="12.87" xlink:href="#a"/><linearGradient id="bg" x1="60.46" y1="21.8" x2="65.05" y2="21.8" xlink:href="#a"/><linearGradient id="bh" x1="70.04" y1="38.2" x2="82.27" y2="38.2" xlink:href="#a"/><linearGradient id="bi" x1="73.89" y1="34.1" x2="78.48" y2="34.1" xlink:href="#a"/><linearGradient id="bj" x1="73.08" y1="37.82" x2="77.67" y2="37.82" xlink:href="#a"/><linearGradient id="bk" x1="75.18" y1="19.54" x2="79.95" y2="19.54" xlink:href="#a"/><linearGradient id="bl" x1="69.78" y1="16.95" x2="76.78" y2="16.95" xlink:href="#a"/><linearGradient id="bm" x1="85.16" y1="38.56" x2="90.66" y2="38.56" xlink:href="#a"/><linearGradient id="bn" x1="1144.65" y1="23.6" x2="1147.14" y2="23.6" gradientTransform="matrix(-1, 0, 0, 1, 1204.49, 0)" xlink:href="#a"/><linearGradient id="bo" x1="1137.84" y1="30.31" x2="1140.33" y2="30.31" gradientTransform="matrix(-1, 0, 0, 1, 1204.49, 0)" xlink:href="#a"/><linearGradient id="bp" x1="1139.78" y1="26.96" x2="1145.28" y2="26.96" gradientTransform="matrix(-1, 0, 0, 1, 1204.49, 0)" xlink:href="#a"/><linearGradient id="bq" x1="109.37" y1="50.01" x2="110.39" y2="50.01" xlink:href="#a"/><linearGradient id="br" x1="103.88" y1="55.41" x2="104.91" y2="55.41" xlink:href="#a"/><linearGradient id="bs" x1="89.71" y1="77.24" x2="91.79" y2="77.24" xlink:href="#a"/><linearGradient id="bt" x1="83.08" y1="97.78" x2="85.16" y2="97.78" xlink:href="#a"/><linearGradient id="bu" x1="83.44" y1="78.7" x2="85.51" y2="78.7" xlink:href="#a"/><linearGradient id="bv" x1="101.89" y1="68.16" x2="103.97" y2="68.16" xlink:href="#a"/><linearGradient id="bw" x1="94.45" y1="85.26" x2="96.53" y2="85.26" xlink:href="#a"/><linearGradient id="bx" x1="88.22" y1="87.24" x2="90.3" y2="87.24" xlink:href="#a"/><linearGradient id="by" x1="52.95" y1="49.2" x2="53.97" y2="49.2" xlink:href="#a"/><linearGradient id="bz" x1="58.43" y1="54.6" x2="59.46" y2="54.6" xlink:href="#a"/><linearGradient id="ca" x1="52.9" y1="57.21" x2="53.93" y2="57.21" xlink:href="#a"/><linearGradient id="cb" x1="58.38" y1="62.6" x2="59.41" y2="62.6" xlink:href="#a"/><linearGradient id="cc" x1="63.22" y1="38.73" x2="65.3" y2="38.73" xlink:href="#a"/><linearGradient id="cd" x1="60.43" y1="86.43" x2="62.5" y2="86.43" xlink:href="#a"/><linearGradient id="ce" x1="71.74" y1="73.45" x2="73.82" y2="73.45" xlink:href="#a"/><linearGradient id="cf" x1="78.63" y1="95.34" x2="80.7" y2="95.34" xlink:href="#a"/><linearGradient id="cg" x1="59.76" y1="68.15" x2="61.84" y2="68.15" xlink:href="#a"/><linearGradient id="ch" x1="68.08" y1="84.56" x2="70.16" y2="84.56" xlink:href="#a"/><linearGradient id="ci" x1="74.35" y1="86.54" x2="76.43" y2="86.54" xlink:href="#a"/><linearGradient id="cj" x1="109.2" y1="53.35" x2="111.14" y2="53.35" xlink:href="#a"/><linearGradient id="ck" x1="103.31" y1="58.85" x2="106.06" y2="58.85" xlink:href="#a"/><linearGradient id="cl" x1="72.64" y1="62.91" x2="75.01" y2="62.91" xlink:href="#a"/><linearGradient id="cm" x1="65.14" y1="73.86" x2="68.23" y2="73.86" xlink:href="#a"/><linearGradient id="cn" x1="88.62" y1="73.02" x2="91.71" y2="73.02" xlink:href="#a"/><linearGradient id="co" x1="100.56" y1="62.88" x2="103.65" y2="62.88" xlink:href="#a"/><linearGradient id="cp" x1="83.32" y1="82.95" x2="86.41" y2="82.95" xlink:href="#a"/><linearGradient id="cq" x1="113.13" y1="77.06" x2="118.2" y2="77.06" xlink:href="#a"/><linearGradient id="cr" x1="108.89" y1="32.37" x2="113.95" y2="32.37" xlink:href="#a"/><linearGradient id="cs" x1="49.58" y1="32.39" x2="54.64" y2="32.39" xlink:href="#a"/><linearGradient id="ct" x1="95.5" y1="73.87" x2="98.59" y2="73.87" xlink:href="#a"/><linearGradient id="cu" x1="93.4" y1="81.56" x2="96.49" y2="81.56" xlink:href="#a"/><linearGradient id="cv" x1="88.06" y1="90.97" x2="91.15" y2="90.97" xlink:href="#a"/><linearGradient id="cw" x1="52.49" y1="53.12" x2="54.43" y2="53.12" xlink:href="#a"/><linearGradient id="cx" x1="57.57" y1="58.72" x2="60.32" y2="58.72" xlink:href="#a"/><linearGradient id="cy" x1="53.11" y1="79.64" x2="56.2" y2="79.64" xlink:href="#a"/><linearGradient id="cz" x1="59.96" y1="63.09" x2="63.05" y2="63.09" xlink:href="#a"/><linearGradient id="da" x1="77.12" y1="79.16" x2="80.21" y2="79.16" xlink:href="#a"/><linearGradient id="db" x1="45.59" y1="76.14" x2="50.65" y2="76.14" xlink:href="#a"/><linearGradient id="dc" x1="68.16" y1="80.86" x2="71.25" y2="80.86" xlink:href="#a"/><linearGradient id="dd" x1="73.46" y1="90.26" x2="76.55" y2="90.26" xlink:href="#a"/><linearGradient id="de" x1="105.23" y1="56.02" x2="109.75" y2="56.02" xlink:href="#a"/><linearGradient id="df" x1="104.62" y1="52.71" x2="109.71" y2="52.71" xlink:href="#a"/><linearGradient id="dg" x1="82.04" y1="79.04" x2="111.02" y2="79.04" xlink:href="#a"/><linearGradient id="dh" x1="85.85" y1="100.42" x2="114.07" y2="100.42" xlink:href="#a"/><linearGradient id="di" x1="84.36" y1="80.24" x2="102.07" y2="80.24" xlink:href="#a"/><linearGradient id="dj" x1="84.87" y1="76.13" x2="89.45" y2="76.13" xlink:href="#a"/><linearGradient id="dk" x1="85.67" y1="80" x2="90.26" y2="80" xlink:href="#a"/><linearGradient id="dl" x1="97.85" y1="70.92" x2="102.44" y2="70.92" xlink:href="#a"/><linearGradient id="dm" x1="89.65" y1="84.67" x2="94.24" y2="84.67" xlink:href="#a"/><linearGradient id="dn" x1="90.42" y1="88.02" x2="95.01" y2="88.02" xlink:href="#a"/><linearGradient id="do" x1="102.58" y1="52.52" x2="112.79" y2="52.52" xlink:href="#a"/><linearGradient id="dp" x1="53.88" y1="55.88" x2="58.4" y2="55.88" xlink:href="#a"/><linearGradient id="dq" x1="53.63" y1="59.89" x2="58.71" y2="59.89" xlink:href="#a"/><linearGradient id="dr" x1="53.63" y1="51.9" x2="58.72" y2="51.9" xlink:href="#a"/><linearGradient id="ds" x1="65.69" y1="99.75" x2="75.89" y2="99.75" xlink:href="#a"/><linearGradient id="dt" x1="50.87" y1="99.45" x2="79.08" y2="99.45" xlink:href="#a"/><linearGradient id="du" x1="62.87" y1="79.11" x2="80.58" y2="79.11" xlink:href="#a"/><linearGradient id="dv" x1="57.92" y1="94.44" x2="72.7" y2="94.44" xlink:href="#a"/><linearGradient id="dw" x1="55.37" y1="83.21" x2="60.95" y2="83.21" xlink:href="#a"/><linearGradient id="dx" x1="49.59" y1="84.27" x2="56.59" y2="84.27" xlink:href="#a"/><linearGradient id="dy" x1="73.26" y1="76.21" x2="77.85" y2="76.21" xlink:href="#a"/><linearGradient id="dz" x1="61.29" y1="70.91" x2="65.88" y2="70.91" xlink:href="#a"/><linearGradient id="ea" x1="70.41" y1="83.97" x2="75" y2="83.97" xlink:href="#a"/><linearGradient id="eb" x1="69.6" y1="87.31" x2="74.19" y2="87.31" xlink:href="#a"/><linearGradient id="ec" x1="65.2" y1="50.79" x2="73.9" y2="50.79" xlink:href="#a"/><linearGradient id="ed" x1="52.12" y1="52.4" x2="62.32" y2="52.4" xlink:href="#a"/><linearGradient id="ee" x1="70.56" y1="52.02" x2="77.56" y2="52.02" xlink:href="#a"/><linearGradient id="ef" x1="539.23" y1="52.02" x2="546.23" y2="52.02" gradientTransform="matrix(-1, 0, 0, 1, 632.78, 0)" xlink:href="#a"/><linearGradient id="eg" x1="571.79" y1="78.98" x2="600.8" y2="78.98" gradientTransform="matrix(-1, 0, 0, 1, 654.8, 0)" xlink:href="#a"/><linearGradient id="eh" x1="98.1" y1="82.73" x2="99.25" y2="82.73" xlink:href="#a"/><linearGradient id="ei" x1="99.48" y1="78.42" x2="100.62" y2="78.42" xlink:href="#a"/><linearGradient id="ej" x1="100.97" y1="74.09" x2="102.12" y2="74.09" xlink:href="#a"/><linearGradient id="ek" x1="108.29" y1="66.81" x2="109.63" y2="66.81" xlink:href="#a"/><linearGradient id="el" x1="106.83" y1="71.1" x2="108.17" y2="71.1" xlink:href="#a"/><linearGradient id="em" x1="105.29" y1="75.59" x2="106.63" y2="75.59" xlink:href="#a"/><linearGradient id="en" x1="101.81" y1="70.46" x2="108.7" y2="70.46" xlink:href="#a"/><linearGradient id="eo" x1="100.32" y1="74.77" x2="107.21" y2="74.77" xlink:href="#a"/><linearGradient id="ep" x1="98.74" y1="79.27" x2="105.63" y2="79.27" xlink:href="#a"/><linearGradient id="eq" x1="1082.21" y1="81.77" x2="1083.18" y2="81.77" gradientTransform="matrix(-1, 0, 0, 1, 1147.87, 0)" xlink:href="#a"/><linearGradient id="er" x1="1083.38" y1="78.1" x2="1084.35" y2="78.1" gradientTransform="matrix(-1, 0, 0, 1, 1147.87, 0)" xlink:href="#a"/><linearGradient id="es" x1="1084.65" y1="74.42" x2="1085.62" y2="74.42" gradientTransform="matrix(-1, 0, 0, 1, 1147.87, 0)" xlink:href="#a"/><linearGradient id="et" x1="1090.86" y1="68.23" x2="1092.02" y2="68.23" gradientTransform="matrix(-1, 0, 0, 1, 1147.87, 0)" xlink:href="#a"/><linearGradient id="eu" x1="1089.61" y1="71.88" x2="1090.78" y2="71.88" gradientTransform="matrix(-1, 0, 0, 1, 1147.87, 0)" xlink:href="#a"/><linearGradient id="ev" x1="1088.31" y1="75.69" x2="1089.47" y2="75.69" gradientTransform="matrix(-1, 0, 0, 1, 1147.87, 0)" xlink:href="#a"/><linearGradient id="ew" x1="1085.35" y1="71.33" x2="1091.24" y2="71.33" gradientTransform="matrix(-1, 0, 0, 1, 1147.87, 0)" xlink:href="#a"/><linearGradient id="ex" x1="1084.08" y1="74.99" x2="1089.97" y2="74.99" gradientTransform="matrix(-1, 0, 0, 1, 1147.87, 0)" xlink:href="#a"/><linearGradient id="ey" x1="1082.74" y1="78.82" x2="1088.63" y2="78.82" gradientTransform="matrix(-1, 0, 0, 1, 1147.87, 0)" xlink:href="#a"/><linearGradient id="ez" x1="1124.87" y1="39.09" x2="1126.94" y2="39.09" gradientTransform="matrix(-1, 0, 0, 1, 1225.52, 0)" xlink:href="#a"/><linearGradient id="fa" x1="1134.16" y1="62.88" x2="1136.53" y2="62.88" gradientTransform="matrix(-1, 0, 0, 1, 1225.52, 0)" xlink:href="#a"/><linearGradient id="fb" x1="1126.14" y1="50.79" x2="1134.84" y2="50.79" gradientTransform="matrix(-1, 0, 0, 1, 1226.09, 0)" xlink:href="#a"/><linearGradient id="fc" x1="509.28" y1="87.66" x2="511.36" y2="87.66" gradientTransform="matrix(-1, 0, 0, 1, 612.79, 0)" xlink:href="#a"/><linearGradient id="fd" x1="501.97" y1="80.88" x2="505.06" y2="80.88" gradientTransform="matrix(-1, 0, 0, 1, 612.79, 0)" xlink:href="#a"/><linearGradient id="fe" x1="513.97" y1="100.34" x2="524.17" y2="100.34" gradientTransform="matrix(-1, 0, 0, 1, 613.36, 0)" xlink:href="#a"/><linearGradient id="ff" x1="505.82" y1="94.71" x2="520.6" y2="94.71" gradientTransform="matrix(-1, 0, 0, 1, 612.79, 0)" xlink:href="#a"/><linearGradient id="fg" x1="504.23" y1="84.44" x2="509.81" y2="84.44" gradientTransform="matrix(-1, 0, 0, 1, 612.79, 0)" xlink:href="#a"/><linearGradient id="fh" x1="498.45" y1="85.5" x2="505.45" y2="85.5" gradientTransform="matrix(-1, 0, 0, 1, 612.79, 0)" xlink:href="#a"/><linearGradient id="fi" x1="102.27" y1="50.8" x2="103.26" y2="50.8" xlink:href="#a"/><linearGradient id="fj" x1="103.46" y1="47.07" x2="104.44" y2="47.07" xlink:href="#a"/><linearGradient id="fk" x1="104.75" y1="43.33" x2="105.74" y2="43.33" xlink:href="#a"/><linearGradient id="fl" x1="111.06" y1="37.04" x2="112.24" y2="37.04" xlink:href="#a"/><linearGradient id="fm" x1="109.79" y1="40.75" x2="110.98" y2="40.75" xlink:href="#a"/><linearGradient id="fn" x1="108.46" y1="44.62" x2="109.65" y2="44.62" xlink:href="#a"/><linearGradient id="fo" x1="105.46" y1="40.2" x2="111.44" y2="40.2" xlink:href="#a"/><linearGradient id="fp" x1="104.17" y1="43.92" x2="110.15" y2="43.92" xlink:href="#a"/><linearGradient id="fq" x1="102.8" y1="47.81" x2="108.79" y2="47.81" xlink:href="#a"/><linearGradient id="fr" x1="1085.86" y1="50.78" x2="1086.83" y2="50.78" gradientTransform="matrix(-1, 0, 0, 1, 1147.87, 0)" xlink:href="#a"/><linearGradient id="fs" x1="1087.03" y1="47.11" x2="1088.01" y2="47.11" gradientTransform="matrix(-1, 0, 0, 1, 1147.87, 0)" xlink:href="#a"/><linearGradient id="ft" x1="1088.3" y1="43.44" x2="1089.28" y2="43.44" gradientTransform="matrix(-1, 0, 0, 1, 1147.87, 0)" xlink:href="#a"/><linearGradient id="fu" x1="1094.51" y1="37.24" x2="1095.68" y2="37.24" gradientTransform="matrix(-1, 0, 0, 1, 1147.87, 0)" xlink:href="#a"/><linearGradient id="fv" x1="1093.27" y1="40.89" x2="1094.43" y2="40.89" gradientTransform="matrix(-1, 0, 0, 1, 1147.87, 0)" xlink:href="#a"/><linearGradient id="fw" x1="1091.96" y1="44.71" x2="1093.13" y2="44.71" gradientTransform="matrix(-1, 0, 0, 1, 1147.87, 0)" xlink:href="#a"/><linearGradient id="fx" x1="1089" y1="40.35" x2="1094.89" y2="40.35" gradientTransform="matrix(-1, 0, 0, 1, 1147.87, 0)" xlink:href="#a"/><linearGradient id="fy" x1="1087.73" y1="44.01" x2="1093.62" y2="44.01" gradientTransform="matrix(-1, 0, 0, 1, 1147.87, 0)" xlink:href="#a"/><linearGradient id="fz" x1="1086.39" y1="47.84" x2="1092.28" y2="47.84" gradientTransform="matrix(-1, 0, 0, 1, 1147.87, 0)" xlink:href="#a"/><linearGradient id="ga" x1="34.66" y1="-4519.13" x2="36.74" y2="-4519.13" gradientTransform="matrix(1, 0, 0, -1, 30.3, -4483.79)" xlink:href="#a"/><linearGradient id="gb" x1="28.27" y1="-4513.42" x2="31.36" y2="-4513.42" gradientTransform="matrix(1, 0, 0, -1, 30.3, -4483.79)" xlink:href="#a"/><linearGradient id="gc" x1="30.62" y1="-4516.37" x2="35.21" y2="-4516.37" gradientTransform="matrix(1, 0, 0, -1, 30.3, -4483.79)" xlink:href="#a"/><linearGradient id="gd" x1="651.84" y1="56.98" x2="652.86" y2="56.98" gradientTransform="matrix(-1, 0, 0, 1, 762.78, 0)" xlink:href="#a"/><linearGradient id="ge" x1="657.32" y1="62.37" x2="658.34" y2="62.37" gradientTransform="matrix(-1, 0, 0, 1, 762.78, 0)" xlink:href="#a"/><linearGradient id="gf" x1="652.56" y1="59.66" x2="657.64" y2="59.66" gradientTransform="matrix(-1, 0, 0, 1, 762.78, 0)" xlink:href="#a"/></defs><title>Asset 29</title><ellipse class="a" cx="78.04" cy="124.24" rx="1.25" ry="1.23"/><ellipse class="b" cx="81.95" cy="124.24" rx="1.25" ry="1.23"/><ellipse class="c" cx="85.76" cy="124.24" rx="1.25" ry="1.23"/><ellipse class="d" cx="82.01" cy="3.79" rx="0.26" ry="0.25"/><ellipse class="e" cx="82.21" cy="0.79" rx="0.26" ry="0.25"/><ellipse class="f" cx="79.43" cy="6.35" rx="0.26" ry="0.25"/><ellipse class="g" cx="79.62" cy="3.37" rx="0.26" ry="0.25"/><ellipse class="h" cx="89.38" cy="10.94" rx="0.65" ry="0.64"/><ellipse class="i" cx="89.79" cy="13.45" rx="0.65" ry="0.64"/><ellipse class="j" cx="84.48" cy="18.49" rx="0.65" ry="0.64"/><ellipse class="k" cx="89.79" cy="16.54" rx="0.65" ry="0.64"/><ellipse class="l" cx="84.71" cy="21.47" rx="0.65" ry="0.64"/><ellipse class="m" cx="84.45" cy="15.9" rx="0.65" ry="0.64"/><circle class="n" cx="104.78" cy="12.86" r="1.04"/><circle class="o" cx="97.36" cy="10.23" r="1.04"/><circle class="p" cx="59.98" cy="19.04" r="1.04"/><circle class="q" cx="66.44" cy="15.45" r="1.04"/><ellipse class="r" cx="81.96" cy="48.05" rx="1.04" ry="1.02"/><circle class="s" cx="72.6" cy="35.07" r="1.04"/><circle class="t" cx="78.87" cy="36.67" r="1.04"/><circle class="u" cx="78.94" cy="32.01" r="1.04"/><circle class="v" cx="98.89" cy="18.56" r="1.39"/><circle class="w" cx="60.76" cy="9.76" r="1.39"/><circle class="x" cx="65.86" cy="24.75" r="1.39"/><ellipse class="y" cx="91.36" cy="26.72" rx="1.1" ry="1.08"/><ellipse class="z" cx="84.54" cy="33.44" rx="1.1" ry="1.08"/><ellipse class="aa" cx="91.28" cy="35.21" rx="1.1" ry="1.08"/><ellipse class="ab" cx="84.46" cy="41.83" rx="1.1" ry="1.08"/><circle class="ac" cx="87.67" cy="2.53" r="2.29"/><circle class="ad" cx="93.99" cy="15.03" r="2.29"/><circle class="ae" cx="69.91" cy="19.48" r="2.29"/><circle class="af" cx="103.05" cy="4.55" r="1.39"/><circle class="ag" cx="73.19" cy="30.99" r="1.39"/><circle class="ah" cx="78.48" cy="40.77" r="1.39"/><circle class="ai" cx="73.28" cy="5.37" r="2.29"/><line class="aj" x1="81.95" y1="3.87" x2="79.52" y2="6.27"/><line class="ak" x1="82.16" y1="0.89" x2="79.72" y2="3.28"/><path class="al" d="M86.66,4,82.47,8.16l.07,39.07" transform="translate(-0.58)"/><path class="am" d="M94.57,17.18v22L83.31,51V54.6" transform="translate(-0.58)"/><line class="an" x1="89.38" y1="16.95" x2="85.13" y2="21.13"/><line class="ao" x1="89.01" y1="11.4" x2="84.85" y2="15.5"/><line class="ap" x1="89.34" y1="13.83" x2="84.97" y2="18.13"/><line class="aq" x1="90.62" y1="27.49" x2="85.35" y2="32.68"/><ellipse class="ar" cx="96.66" cy="35.02" rx="0.57" ry="0.56"/><ellipse class="as" cx="98.04" cy="30.71" rx="0.57" ry="0.56"/><ellipse class="at" cx="99.53" cy="26.39" rx="0.57" ry="0.56"/><ellipse class="au" cx="106.94" cy="19.1" rx="0.57" ry="0.56"/><ellipse class="av" cx="105.48" cy="23.4" rx="0.57" ry="0.56"/><ellipse class="aw" cx="103.94" cy="27.88" rx="0.57" ry="0.56"/><line class="ax" x1="106.57" y1="19.48" x2="99.91" y2="26.04"/><line class="ay" x1="105.08" y1="23.79" x2="98.42" y2="30.34"/><line class="az" x1="103.5" y1="28.29" x2="96.84" y2="34.84"/><line class="ba" x1="103.37" y1="8.03" x2="98.89" y2="12.43"/><line class="bb" x1="103.15" y1="10.92" x2="98.67" y2="15.33"/><line class="bc" x1="102.17" y1="5.57" x2="97.92" y2="9.75"/><line class="bd" x1="104.12" y1="13.52" x2="99.87" y2="17.7"/><line class="be" x1="61.39" y1="14.21" x2="65.86" y2="18.61"/><line class="bf" x1="61.61" y1="17.11" x2="66.08" y2="21.51"/><line class="bg" x1="61.64" y1="10.78" x2="65.89" y2="14.96"/><line class="bh" x1="60.63" y1="19.7" x2="64.88" y2="23.89"/><path class="bi" d="M70.53,21.73v17.7L81.78,51.06v3.61" transform="translate(-0.58)"/><line class="bj" x1="74.06" y1="32.01" x2="78.31" y2="36.19"/><line class="bk" x1="73.25" y1="35.73" x2="77.5" y2="39.91"/><path class="bl" d="M75.42,7l4.18,4.12-.06,21.25" transform="translate(-0.58)"/><line class="bm" x1="69.95" y1="13.67" x2="76.61" y2="20.22"/><line class="bn" x1="90.55" y1="35.97" x2="85.27" y2="41.16"/><ellipse class="bo" cx="58.59" cy="23.6" rx="1.1" ry="1.08"/><ellipse class="bp" cx="65.41" cy="30.31" rx="1.1" ry="1.08"/><line class="bq" x1="59.32" y1="24.36" x2="64.6" y2="29.55"/><path d="M8.81,60a.89.89,0,0,1-.69.13C7.69,58.68,7,57.35,5,57.35a2.49,2.49,0,0,0-2.34,2.4c0,1.79,2.14,2.6,3.4,3.07,1.76.66,3.47,1.66,3.47,3.93a4.15,4.15,0,0,1-2,3.45,5.05,5.05,0,0,1-2.64.7C3,70.9,2.35,70.41,1,70.41a14.46,14.46,0,0,1-.42-3.25.86.86,0,0,1,.69-.07,3.46,3.46,0,0,0,3.75,3A2.38,2.38,0,0,0,7.69,67.5c0-2.09-1.57-2.69-2.87-3.18-1.88-.72-3.73-1.75-3.73-4a3.8,3.8,0,0,1,4.07-3.69c2.08,0,2,.4,3.27.57A19.37,19.37,0,0,1,8.81,60Z" transform="translate(-0.58)"/><path d="M36.77,64.06A7.66,7.66,0,0,1,39,58.44a6.62,6.62,0,0,1,4.59-1.81c2.63,0,3.59.85,4.68,1,.21,1.17.36,2.2.47,3.31a.84.84,0,0,1-.7.11,4.5,4.5,0,0,0-4.68-3.59A4.55,4.55,0,0,0,40,59.32a6.93,6.93,0,0,0-1.27,4.33c0,3.12,2,6.37,4.87,6.37a6.16,6.16,0,0,0,5-2.33A.55.55,0,0,1,49,68a6.78,6.78,0,0,1-5.43,2.89C39,70.9,36.77,67.77,36.77,64.06Z" transform="translate(-0.58)"/><path d="M79.08,65c0,1.39,0,3,1.09,4a3.64,3.64,0,0,0,2.54,1c3.61,0,3.93-2.86,3.93-5.25V59.51c0-1.73-.36-1.79-2-1.94a.7.7,0,0,1,0-.71l2.48,0,2.18,0a.75.75,0,0,1,0,.71c-1.29.15-1.65.23-1.65,1.94v4.87c0,3.8-1,6.52-5.42,6.52-2.19,0-5-.84-5-5.19v-6.2c0-1.77-.37-1.88-1.65-1.94a.7.7,0,0,1,0-.71c.83,0,1.71,0,2.54,0s1.88,0,2.89,0a.7.7,0,0,1,0,.71c-1.65.06-2,.17-2,1.94Z" transform="translate(-0.58)"/><path d="M121,56.86c4,0,4.6,1.86,4.6,3.29a3.47,3.47,0,0,1-2,2.8v0c1.85.54,3.29,1.71,3.29,3.76,0,1.84-1.14,4-5.39,4-1.79,0-2.35,0-3.12,0s-1.94,0-2.77,0a.7.7,0,0,1,0-.71c1.49-.06,1.86-.17,1.86-1.94V59.51c0-1.77-.37-1.88-1.86-1.94a.7.7,0,0,1,0-.71c.83,0,2,0,2.75,0S120.23,56.86,121,56.86Zm-1.75,6h1.58c1.78,0,3-.64,3-2.45a2.6,2.6,0,0,0-2.76-2.82c-1.86,0-1.86.21-1.86,1.34Zm0,5.3c0,1.31.28,1.86,1.77,1.86,3.25,0,3.85-1.3,3.85-2.86,0-1.92-1.22-3.57-4.15-3.57h-1.47Z" transform="translate(-0.58)"/><path d="M161.28,61.52a.7.7,0,0,1,.71,0c0,.51-.05,1.24-.05,1.84s0,1.32.05,1.88a.75.75,0,0,1-.71,0c-.06-1-.13-1.46-1.94-1.46h-2V68.5c0,1,.3,1.35,1.2,1.35h2.48c1.62,0,2.37-1.26,2.8-2.8a.94.94,0,0,1,.74.11,34,34,0,0,1-.79,3.57s-1.7,0-2.73,0H156.5c-.71,0-2,0-2.78,0a.7.7,0,0,1,0-.71c1.5-.06,1.86-.17,1.86-1.94V59.51c0-1.77-.36-1.88-1.86-1.94a.7.7,0,0,1,0-.71l2.76,0h5.44a5.09,5.09,0,0,0,1.05-.08q.09,0,.09.06c0,.17.36,2.22.46,3.1a1.15,1.15,0,0,1-.7.11c-.47-1.48-.81-2.33-2.41-2.33H158.8c-1.15,0-1.41.43-1.41,1.37V63h2C161.15,63,161.22,62.69,161.28,61.52Z" transform="translate(-0.58)"/><ellipse class="br" cx="109.88" cy="50.01" rx="0.51" ry="0.5"/><ellipse class="bs" cx="104.39" cy="55.41" rx="0.51" ry="0.5"/><circle class="bt" cx="90.75" cy="77.24" r="1.04"/><circle class="bu" cx="84.12" cy="97.78" r="1.04"/><circle class="bv" cx="84.48" cy="78.7" r="1.04"/><circle class="bw" cx="102.93" cy="68.16" r="1.04"/><circle class="bx" cx="95.49" cy="85.26" r="1.04"/><circle class="by" cx="89.26" cy="87.24" r="1.04"/><ellipse class="bz" cx="53.46" cy="49.2" rx="0.51" ry="0.5"/><ellipse class="ca" cx="58.95" cy="54.6" rx="0.51" ry="0.5"/><ellipse class="cb" cx="53.42" cy="57.21" rx="0.51" ry="0.5"/><ellipse class="cc" cx="58.9" cy="62.6" rx="0.51" ry="0.5"/><ellipse class="cd" cx="64.26" cy="38.73" rx="1.04" ry="1.02"/><circle class="ce" cx="61.47" cy="86.43" r="1.04"/><circle class="cf" cx="72.78" cy="73.45" r="1.04"/><circle class="cg" cx="79.67" cy="95.34" r="1.04"/><circle class="ch" cx="60.8" cy="68.15" r="1.04"/><circle class="ci" cx="69.12" cy="84.56" r="1.04"/><circle class="cj" cx="75.39" cy="86.54" r="1.04"/><circle class="ck" cx="110.17" cy="53.35" r="0.97"/><ellipse class="cl" cx="104.68" cy="58.85" rx="1.23" ry="1.21"/><ellipse class="cm" cx="73.83" cy="62.91" rx="1.04" ry="1.02"/><circle class="cn" cx="66.68" cy="73.86" r="1.39"/><circle class="co" cx="90.16" cy="73.02" r="1.39"/><circle class="cp" cx="102.11" cy="62.88" r="1.39"/><circle class="cq" cx="84.86" cy="82.95" r="1.39"/><circle class="cr" cx="115.66" cy="77.06" r="2.29"/><circle class="cs" cx="111.42" cy="32.37" r="2.29"/><circle class="ct" cx="52.11" cy="32.39" r="2.29"/><circle class="cu" cx="97.04" cy="73.87" r="1.39"/><circle class="cv" cx="94.95" cy="81.56" r="1.39"/><circle class="cw" cx="89.61" cy="90.97" r="1.39"/><circle class="cx" cx="53.46" cy="53.12" r="0.97"/><ellipse class="cy" cx="58.95" cy="58.72" rx="1.23" ry="1.21"/><ellipse class="cz" cx="54.66" cy="79.64" rx="1.39" ry="1.36"/><circle class="da" cx="61.5" cy="63.09" r="1.39"/><circle class="db" cx="78.66" cy="79.16" r="1.39"/><circle class="dc" cx="48.12" cy="76.14" r="2.29"/><circle class="dd" cx="69.7" cy="80.86" r="1.39"/><circle class="de" cx="75" cy="90.26" r="1.39"/><line class="df" x1="109.58" y1="53.96" x2="105.4" y2="58.07"/><line class="dg" x1="109.6" y1="50.32" x2="104.73" y2="55.11"/><path class="dh" d="M110.68,34,97.47,47.14V62L82.53,76.73v47.68" transform="translate(-0.58)"/><path class="di" d="M114.07,77.11h-5L86.34,99.51v24.7" transform="translate(-0.58)"/><path class="dj" d="M101.83,63.75l-6.89,6.78V78.1L84.7,88.19V97" transform="translate(-0.58)"/><line class="dk" x1="89.28" y1="74.04" x2="85.04" y2="78.22"/><line class="dl" x1="90.09" y1="77.91" x2="85.84" y2="82.09"/><line class="dm" x1="102.27" y1="68.83" x2="98.02" y2="73.01"/><line class="dn" x1="94.07" y1="82.58" x2="89.82" y2="86.76"/><line class="do" x1="94.84" y1="85.93" x2="90.59" y2="90.11"/><path class="dp" d="M112.55,45.12l-5.29,5.16-4.34,4.33v5.55" transform="translate(-0.58)"/><line class="dq" x1="54.05" y1="53.83" x2="58.23" y2="57.94"/><line class="dr" x1="53.74" y1="57.5" x2="58.59" y2="62.28"/><line class="ds" x1="53.74" y1="49.5" x2="58.61" y2="54.3"/><path class="dt" d="M65.92,90.18l5.29,5.15,4.34,4.33v9.92" transform="translate(-0.58)"/><path class="du" d="M50.87,76.14h5L78.6,98.54v24.7" transform="translate(-0.58)"/><path class="dv" d="M63.11,63.93,70,70.71v5L80.24,85.74v8.78" transform="translate(-0.58)"/><line class="dw" x1="58.09" y1="87.33" x2="72.53" y2="101.55"/><line class="dx" x1="55.54" y1="80.63" x2="60.78" y2="85.79"/><line class="dy" x1="49.76" y1="80.99" x2="56.42" y2="87.54"/><line class="dz" x1="73.44" y1="74.12" x2="77.68" y2="78.3"/><line class="ea" x1="61.46" y1="68.82" x2="65.7" y2="73"/><line class="eb" x1="70.58" y1="81.88" x2="74.83" y2="86.06"/><line class="ec" x1="69.77" y1="85.22" x2="74.02" y2="89.4"/><path class="ed" d="M65.44,39.43l4.18,4.12v14.5l4,4.11" transform="translate(-0.58)"/><path class="ee" d="M52.36,44.89,57.64,50,62,54.37v5.79h0" transform="translate(-0.58)"/><line class="ef" x1="70.73" y1="48.74" x2="77.39" y2="55.29"/><line class="eg" x1="93.39" y1="48.74" x2="86.73" y2="55.29"/><path class="eh" d="M54.34,34,67.55,47.08V61.92l15,14.75v47.67" transform="translate(-0.58)"/><ellipse class="ei" cx="98.68" cy="82.73" rx="0.57" ry="0.56"/><ellipse class="ej" cx="100.05" cy="78.42" rx="0.57" ry="0.56"/><ellipse class="ek" cx="101.55" cy="74.09" rx="0.57" ry="0.56"/><ellipse class="el" cx="108.96" cy="66.81" rx="0.57" ry="0.56"/><ellipse class="em" cx="107.5" cy="71.1" rx="0.57" ry="0.56"/><ellipse class="en" cx="105.96" cy="75.59" rx="0.57" ry="0.56"/><line class="eo" x1="108.58" y1="67.19" x2="101.92" y2="73.74"/><line class="ep" x1="107.1" y1="71.49" x2="100.44" y2="78.05"/><line class="eq" x1="105.52" y1="75.99" x2="98.86" y2="82.55"/><ellipse class="er" cx="65.17" cy="81.77" rx="0.49" ry="0.48"/><ellipse class="es" cx="64" cy="78.1" rx="0.49" ry="0.48"/><ellipse class="et" cx="62.73" cy="74.42" rx="0.49" ry="0.48"/><ellipse class="eu" cx="56.43" cy="68.23" rx="0.49" ry="0.48"/><ellipse class="ev" cx="57.67" cy="71.88" rx="0.49" ry="0.48"/><ellipse class="ew" cx="58.98" cy="75.69" rx="0.49" ry="0.48"/><line class="ex" x1="56.75" y1="68.55" x2="62.41" y2="74.12"/><line class="ey" x1="58.01" y1="72.21" x2="63.68" y2="77.78"/><line class="ez" x1="59.35" y1="76.03" x2="65.02" y2="81.61"/><ellipse class="fa" cx="99.61" cy="39.09" rx="1.04" ry="1.02"/><ellipse class="fb" cx="90.17" cy="62.88" rx="1.04" ry="1.02"/><path class="fc" d="M99.72,39.43l-4.19,4.12v14.5l-4,4.12" transform="translate(-0.58)"/><circle class="fd" cx="102.46" cy="87.66" r="1.04"/><ellipse class="fe" cx="109.27" cy="80.88" rx="1.39" ry="1.36"/><path class="ff" d="M99.16,91.41l-5.29,5.15-4.34,4.33v8.63" transform="translate(-0.58)"/><line class="fg" x1="106.79" y1="87.6" x2="92.35" y2="101.82"/><line class="fh" x1="108.38" y1="81.86" x2="103.14" y2="87.02"/><line class="fi" x1="114.17" y1="82.22" x2="107.51" y2="88.77"/><ellipse class="fj" cx="102.76" cy="50.8" rx="0.49" ry="0.49"/><ellipse class="fk" cx="103.95" cy="47.07" rx="0.49" ry="0.49"/><ellipse class="fl" cx="105.24" cy="43.33" rx="0.49" ry="0.49"/><ellipse class="fm" cx="111.65" cy="37.04" rx="0.49" ry="0.49"/><ellipse class="fn" cx="110.38" cy="40.75" rx="0.49" ry="0.49"/><ellipse class="fo" cx="109.06" cy="44.62" rx="0.49" ry="0.49"/><line class="fp" x1="111.32" y1="37.36" x2="105.57" y2="43.03"/><line class="fq" x1="110.04" y1="41.08" x2="104.28" y2="46.75"/><line class="fr" x1="108.67" y1="44.97" x2="102.92" y2="50.64"/><ellipse class="fs" cx="61.52" cy="50.78" rx="0.49" ry="0.48"/><ellipse class="ft" cx="60.35" cy="47.11" rx="0.49" ry="0.48"/><ellipse class="fu" cx="59.08" cy="43.44" rx="0.49" ry="0.48"/><ellipse class="fv" cx="52.77" cy="37.24" rx="0.49" ry="0.48"/><ellipse class="fw" cx="54.02" cy="40.89" rx="0.49" ry="0.48"/><ellipse class="fx" cx="55.33" cy="44.71" rx="0.49" ry="0.48"/><line class="fy" x1="53.09" y1="37.56" x2="58.76" y2="43.14"/><line class="fz" x1="54.36" y1="41.22" x2="60.02" y2="46.8"/><line class="ga" x1="55.7" y1="45.05" x2="61.37" y2="50.63"/><circle class="gb" cx="66" cy="35.33" r="1.04"/><circle class="gc" cx="60.12" cy="29.63" r="1.39"/><line class="gd" x1="65.35" y1="34.67" x2="61.1" y2="30.49"/><ellipse class="ge" cx="110.43" cy="56.98" rx="0.51" ry="0.5"/><ellipse class="gf" cx="104.95" cy="62.37" rx="0.51" ry="0.5"/><line class="gg" x1="110.11" y1="57.27" x2="105.26" y2="62.05"/><path d="M163.26,51v.23h-.63v2h-.29v-2h-.63V51Z" transform="translate(-0.58)"/><path d="M166.35,51v2.2h-.29V51.49l-.7,1.75h-.25l-.71-1.75v1.75h-.29V51h.35l.78,1.85L166,51Z" transform="translate(-0.58)"/></svg>