<svg width="11" height="16" viewBox="0 0 11 16" fill="none" xmlns="http://www.w3.org/2000/svg">
<path d="M2.16536 15.3337C1.7987 15.3337 1.48481 15.2031 1.2237 14.942C0.962587 14.6809 0.832031 14.367 0.832031 14.0003V2.00033C0.832031 1.63366 0.962587 1.31977 1.2237 1.05866C1.48481 0.797548 1.7987 0.666992 2.16536 0.666992H8.83203C9.1987 0.666992 9.51259 0.797548 9.7737 1.05866C10.0348 1.31977 10.1654 1.63366 10.1654 2.00033V14.0003C10.1654 14.367 10.0348 14.6809 9.7737 14.942C9.51259 15.2031 9.1987 15.3337 8.83203 15.3337H2.16536ZM5.4987 13.667C5.68759 13.667 5.84592 13.6031 5.9737 13.4753C6.10148 13.3475 6.16536 13.1892 6.16536 13.0003C6.16536 12.8114 6.10148 12.6531 5.9737 12.5253C5.84592 12.3975 5.68759 12.3337 5.4987 12.3337C5.30981 12.3337 5.15148 12.3975 5.0237 12.5253C4.89592 12.6531 4.83203 12.8114 4.83203 13.0003C4.83203 13.1892 4.89592 13.3475 5.0237 13.4753C5.15148 13.6031 5.30981 13.667 5.4987 13.667ZM2.16536 10.667H8.83203V4.00033H2.16536V10.667Z" fill="#98144D"/>
</svg>
