<svg width="33" height="33" viewBox="0 0 33 33" fill="none" xmlns="http://www.w3.org/2000/svg">
<path d="M27.5 10.7635C27.4998 10.0342 27.21 9.33486 26.6942 8.81925L24.1808 6.30575C23.6651 5.78999 22.9658 5.50016 22.2365 5.5H8.25C7.52065 5.5 6.82118 5.78973 6.30546 6.30546C5.78973 6.82118 5.5 7.52065 5.5 8.25V24.75C5.5 25.4793 5.78973 26.1788 6.30546 26.6945C6.82118 27.2103 7.52065 27.5 8.25 27.5H24.75C25.4793 27.5 26.1788 27.2103 26.6945 26.6945C27.2103 26.1788 27.5 25.4793 27.5 24.75V10.7635Z" stroke="#98144D" stroke-width="2" stroke-linecap="round" stroke-linejoin="round"/>
<path d="M19.75 6V9.25C19.75 10.3546 18.8546 11.25 17.75 11.25H12C10.8954 11.25 10 10.3546 10 9.25V6M10 27V18.5C10 17.3954 10.8954 16.5 12 16.5H21C22.1046 16.5 23 17.3954 23 18.5V27" stroke="#98144D" stroke-width="2" stroke-linecap="round" stroke-linejoin="round"/>
</svg>
