<svg width="15" height="14" viewBox="0 0 15 14" fill="none" xmlns="http://www.w3.org/2000/svg">
<path d="M7.4987 13.6663C6.58759 13.6663 5.72648 13.4913 4.91536 13.1413C4.10425 12.7913 3.39592 12.3136 2.79036 11.708C2.18481 11.1025 1.70703 10.3941 1.35703 9.58301C1.00703 8.7719 0.832031 7.91079 0.832031 6.99967C0.832031 6.07745 1.00703 5.21356 1.35703 4.40801C1.70703 3.60245 2.18481 2.8969 2.79036 2.29134C3.39592 1.68579 4.10425 1.20801 4.91536 0.858008C5.72648 0.508008 6.58759 0.333008 7.4987 0.333008C8.42092 0.333008 9.28481 0.508008 10.0904 0.858008C10.8959 1.20801 11.6015 1.68579 12.207 2.29134C12.8126 2.8969 13.2904 3.60245 13.6404 4.40801C13.9904 5.21356 14.1654 6.07745 14.1654 6.99967C14.1654 7.91079 13.9904 8.7719 13.6404 9.58301C13.2904 10.3941 12.8126 11.1025 12.207 11.708C11.6015 12.3136 10.8959 12.7913 10.0904 13.1413C9.28481 13.4913 8.42092 13.6663 7.4987 13.6663ZM7.4987 12.2997C7.78759 11.8997 8.03759 11.483 8.2487 11.0497C8.45981 10.6163 8.63203 10.1552 8.76536 9.66634H6.23203C6.36536 10.1552 6.53759 10.6163 6.7487 11.0497C6.95981 11.483 7.20981 11.8997 7.4987 12.2997ZM5.76536 12.033C5.56536 11.6663 5.39036 11.2858 5.24036 10.8913C5.09036 10.4969 4.96536 10.0886 4.86536 9.66634H2.8987C3.22092 10.2219 3.6237 10.7052 4.10703 11.1163C4.59036 11.5275 5.14314 11.833 5.76536 12.033ZM9.23203 12.033C9.85425 11.833 10.407 11.5275 10.8904 11.1163C11.3737 10.7052 11.7765 10.2219 12.0987 9.66634H10.132C10.032 10.0886 9.90703 10.4969 9.75703 10.8913C9.60703 11.2858 9.43203 11.6663 9.23203 12.033ZM2.33203 8.33301H4.5987C4.56536 8.11079 4.54036 7.89134 4.5237 7.67467C4.50703 7.45801 4.4987 7.23301 4.4987 6.99967C4.4987 6.76634 4.50703 6.54134 4.5237 6.32467C4.54036 6.10801 4.56536 5.88856 4.5987 5.66634H2.33203C2.27648 5.88856 2.23481 6.10801 2.20703 6.32467C2.17925 6.54134 2.16536 6.76634 2.16536 6.99967C2.16536 7.23301 2.17925 7.45801 2.20703 7.67467C2.23481 7.89134 2.27648 8.11079 2.33203 8.33301ZM5.93203 8.33301H9.06536C9.0987 8.11079 9.1237 7.89134 9.14036 7.67467C9.15703 7.45801 9.16536 7.23301 9.16536 6.99967C9.16536 6.76634 9.15703 6.54134 9.14036 6.32467C9.1237 6.10801 9.0987 5.88856 9.06536 5.66634H5.93203C5.8987 5.88856 5.8737 6.10801 5.85703 6.32467C5.84036 6.54134 5.83203 6.76634 5.83203 6.99967C5.83203 7.23301 5.84036 7.45801 5.85703 7.67467C5.8737 7.89134 5.8987 8.11079 5.93203 8.33301ZM10.3987 8.33301H12.6654C12.7209 8.11079 12.7626 7.89134 12.7904 7.67467C12.8181 7.45801 12.832 7.23301 12.832 6.99967C12.832 6.76634 12.8181 6.54134 12.7904 6.32467C12.7626 6.10801 12.7209 5.88856 12.6654 5.66634H10.3987C10.432 5.88856 10.457 6.10801 10.4737 6.32467C10.4904 6.54134 10.4987 6.76634 10.4987 6.99967C10.4987 7.23301 10.4904 7.45801 10.4737 7.67467C10.457 7.89134 10.432 8.11079 10.3987 8.33301ZM10.132 4.33301H12.0987C11.7765 3.77745 11.3737 3.29412 10.8904 2.88301C10.407 2.4719 9.85425 2.16634 9.23203 1.96634C9.43203 2.33301 9.60703 2.71356 9.75703 3.10801C9.90703 3.50245 10.032 3.91079 10.132 4.33301ZM6.23203 4.33301H8.76536C8.63203 3.84412 8.45981 3.38301 8.2487 2.94967C8.03759 2.51634 7.78759 2.09967 7.4987 1.69967C7.20981 2.09967 6.95981 2.51634 6.7487 2.94967C6.53759 3.38301 6.36536 3.84412 6.23203 4.33301ZM2.8987 4.33301H4.86536C4.96536 3.91079 5.09036 3.50245 5.24036 3.10801C5.39036 2.71356 5.56536 2.33301 5.76536 1.96634C5.14314 2.16634 4.59036 2.4719 4.10703 2.88301C3.6237 3.29412 3.22092 3.77745 2.8987 4.33301Z" fill="#98144D"/>
</svg>
