<svg width="24" height="24" viewBox="0 0 24 24" fill="none" xmlns="http://www.w3.org/2000/svg">
<path d="M2.51715 11.9142C2.51651 13.5844 2.95258 15.2149 3.78181 16.6521L2.4375 21.5625L7.46087 20.2448C8.8449 20.9998 10.4031 21.3978 11.9889 21.3984H11.993C17.2151 21.3984 21.4664 17.1465 21.4688 11.9216C21.4696 9.38923 20.4847 7.00816 18.6958 5.21679C16.9065 3.42563 14.5276 2.43856 11.993 2.4375C6.76971 2.4375 2.51906 6.68856 2.51694 11.9139M5.50823 16.4045L5.32068 16.1066C4.53224 14.8524 4.11613 13.4029 4.11656 11.9148C4.11847 7.57171 7.6514 4.03805 11.9957 4.03805C14.0996 4.0389 16.0766 4.85936 17.5639 6.34814C19.0509 7.83691 19.8693 9.81614 19.8687 11.9207C19.8668 16.264 16.3337 19.7977 11.9927 19.7977H11.9896C10.576 19.7968 9.18985 19.4173 7.98105 18.6995L7.69324 18.5289L4.71214 19.3109L5.50823 16.4045ZM11.993 21.3984C11.9927 21.3984 11.9927 21.3984 11.993 21.3984V21.3984Z" fill="#A8861C"/>
<path d="M9.67369 7.91376C9.49572 7.52036 9.30837 7.5123 9.13914 7.50552C9.0006 7.49958 8.84202 7.50001 8.68387 7.50001C8.52529 7.50001 8.26804 7.55914 8.05042 7.79548C7.83259 8.03204 7.21875 8.60349 7.21875 9.7659C7.21875 10.9285 8.07024 12.0517 8.18875 12.2096C8.30768 12.3671 9.83248 14.8289 12.2471 15.7759C14.2541 16.563 14.6626 16.4065 15.0981 16.3671C15.5337 16.3277 16.5037 15.7956 16.7018 15.2439C16.8998 14.6922 16.8998 14.2193 16.8405 14.1207C16.781 14.0221 16.6227 13.963 16.385 13.8449C16.1474 13.7267 14.9794 13.1552 14.7615 13.0764C14.5437 12.9975 14.3854 12.9583 14.2268 13.1948C14.0684 13.4312 13.6134 13.9632 13.4748 14.1207C13.3363 14.2786 13.1975 14.2983 12.9601 14.1801C12.7224 14.0616 11.9573 13.8123 11.0495 13.0075C10.3432 12.3811 9.86637 11.6079 9.72783 11.3713C9.58929 11.135 9.71312 11.0072 9.83205 10.8893C9.93884 10.7835 10.0697 10.6135 10.1886 10.4756C10.3071 10.3376 10.3468 10.239 10.4259 10.0815C10.5051 9.92382 10.4655 9.78583 10.406 9.66755C10.3466 9.54928 9.88491 8.38093 9.67369 7.91376Z" fill="#A8861C"/>
</svg>
