<svg width="24" height="24" viewBox="0 0 24 24" fill="none" xmlns="http://www.w3.org/2000/svg">
<path d="M0.517152 9.91415C0.516515 11.5844 0.952581 13.2149 1.78181 14.6521L0.4375 19.5625L5.46087 18.2448C6.8449 18.9998 8.4031 19.3978 9.98891 19.3984H9.99295C15.2151 19.3984 19.4664 15.1465 19.4688 9.92159C19.4696 7.38923 18.4847 5.00816 16.6958 3.21679C14.9065 1.42563 12.5276 0.438563 9.99295 0.4375C4.76971 0.4375 0.519063 4.68856 0.516939 9.91394M3.50823 14.4045L3.32068 14.1066C2.53224 12.8524 2.11613 11.4029 2.11656 9.91479C2.11847 5.57171 5.6514 2.03805 9.99571 2.03805C12.0996 2.0389 14.0766 2.85936 15.5639 4.34814C17.0509 5.83691 17.8693 7.81614 17.8687 9.92074C17.8668 14.264 14.3337 17.7977 9.99274 17.7977H9.98955C8.576 17.7968 7.18985 17.4173 5.98105 16.6995L5.69324 16.5289L2.71214 17.3109L3.50823 14.4045ZM9.99295 19.3984C9.99274 19.3984 9.99274 19.3984 9.99295 19.3984V19.3984Z" fill="#98144D"/>
<path d="M7.67369 5.91376C7.49572 5.52036 7.30837 5.5123 7.13914 5.50552C7.0006 5.49958 6.84202 5.50001 6.68387 5.50001C6.52529 5.50001 6.26804 5.55914 6.05042 5.79548C5.83259 6.03204 5.21875 6.60349 5.21875 7.7659C5.21875 8.92853 6.07024 10.0517 6.18875 10.2096C6.30768 10.3671 7.83248 12.8289 10.2471 13.7759C12.2541 14.563 12.6626 14.4065 13.0981 14.3671C13.5337 14.3277 14.5037 13.7956 14.7018 13.2439C14.8998 12.6922 14.8998 12.2193 14.8405 12.1207C14.781 12.0221 14.6227 11.963 14.385 11.8449C14.1474 11.7267 12.9794 11.1552 12.7615 11.0764C12.5437 10.9975 12.3854 10.9583 12.2268 11.1948C12.0684 11.4312 11.6134 11.9632 11.4748 12.1207C11.3363 12.2786 11.1975 12.2983 10.9601 12.1801C10.7224 12.0616 9.95727 11.8123 9.04951 11.0075C8.34316 10.3811 7.86637 9.60787 7.72783 9.37132C7.58929 9.13498 7.71312 9.00716 7.83205 8.88931C7.93884 8.78354 8.0697 8.61355 8.18863 8.47556C8.30714 8.33757 8.34678 8.23901 8.42586 8.08152C8.50515 7.92382 8.4655 7.78583 8.40604 7.66755C8.34657 7.54928 7.88491 6.38093 7.67369 5.91376Z" fill="#98144D"/>
</svg>
