<svg width="44" height="44" viewBox="0 0 44 44" fill="none" xmlns="http://www.w3.org/2000/svg">
<circle cx="22" cy="22" r="22" fill="#98144D"/>
<path fill-rule="evenodd" clip-rule="evenodd" d="M28.9366 15.1024C27.1003 13.264 24.6585 12.2511 22.0574 12.25C16.6971 12.25 12.3334 16.6126 12.3313 21.9751C12.3313 23.6889 12.7787 25.3616 13.6291 26.8371L12.25 31.8757L17.4056 30.5226C18.8269 31.2972 20.4259 31.7056 22.0531 31.7067H22.0574C27.4167 31.7067 31.7803 27.3441 31.7825 21.9816C31.7825 19.3837 30.7728 16.9408 28.9366 15.1024ZM22.0574 30.0654H22.0542C20.6036 30.0643 19.1812 29.6754 17.9397 28.9377L17.645 28.7622L14.5857 29.5649L15.4014 26.5825L15.2097 26.277C14.4004 24.99 13.9736 23.5026 13.9736 21.9751C13.9758 17.5183 17.6017 13.8923 22.0607 13.8923C24.2198 13.8934 26.2488 14.7352 27.7752 16.2627C29.3006 17.7913 30.1413 19.8214 30.1402 21.9816C30.138 26.4384 26.5121 30.0654 22.0574 30.0654ZM26.4915 24.0107C26.2478 23.8883 25.0539 23.3011 24.8308 23.2198C24.6087 23.1386 24.4473 23.0985 24.2848 23.3412C24.1223 23.5838 23.6564 24.1309 23.5145 24.2934C23.3726 24.4559 23.2307 24.4754 22.988 24.3541C22.7453 24.2328 21.9621 23.976 21.0337 23.1483C20.3111 22.5038 19.8236 21.7086 19.6817 21.4648C19.5398 21.2211 19.6665 21.09 19.7889 20.9687C19.8983 20.8603 20.0316 20.6848 20.1529 20.5429C20.2743 20.401 20.3143 20.3003 20.3956 20.1378C20.4768 19.9753 20.4368 19.8333 20.375 19.712C20.3143 19.5896 19.8279 18.3936 19.6253 17.9072C19.4292 17.4359 19.2288 17.4988 19.0793 17.4923C18.9385 17.4858 18.776 17.4836 18.6146 17.4836C18.4521 17.4836 18.1888 17.5443 17.9657 17.7869C17.7425 18.0307 17.1153 18.6178 17.1153 19.8138C17.1153 21.0098 17.9862 22.1658 18.1076 22.3283C18.2289 22.4908 19.8214 24.9445 22.2589 25.9975C22.8396 26.2478 23.2924 26.3973 23.6445 26.5099C24.2262 26.6952 24.756 26.6681 25.1753 26.6063C25.6422 26.537 26.6128 26.0192 26.8154 25.4515C27.018 24.8838 27.018 24.3974 26.9573 24.2956C26.8967 24.1938 26.7331 24.132 26.4915 24.0107Z" fill="white"/>
</svg>
